<?xml version="1.0" encoding="UTF-8" standalone="no"?>
<svg
   xmlns:dc="http://purl.org/dc/elements/1.1/"
   xmlns:cc="http://creativecommons.org/ns#"
   xmlns:rdf="http://www.w3.org/1999/02/22-rdf-syntax-ns#"
   xmlns:svg="http://www.w3.org/2000/svg"
   xmlns="http://www.w3.org/2000/svg"
   xmlns:sodipodi="http://sodipodi.sourceforge.net/DTD/sodipodi-0.dtd"
   xmlns:inkscape="http://www.inkscape.org/namespaces/inkscape"
   width="311"
   height="281"
   version="1.1"
   id="svg7313"
   sodipodi:docname="ges2.svg"
   inkscape:version="0.92.4 (5da689c313, 2019-01-14)">
  <metadata
     id="metadata7319">
    <rdf:RDF>
      <cc:Work
         rdf:about="">
        <dc:format>image/svg+xml</dc:format>
        <dc:type
           rdf:resource="http://purl.org/dc/dcmitype/StillImage" />
        <dc:title></dc:title>
      </cc:Work>
    </rdf:RDF>
  </metadata>
  <defs
     id="defs7317" />
  <sodipodi:namedview
     pagecolor="#ffffff"
     bordercolor="#666666"
     borderopacity="1"
     objecttolerance="10"
     gridtolerance="10"
     guidetolerance="10"
     inkscape:pageopacity="0"
     inkscape:pageshadow="2"
     inkscape:window-width="1536"
     inkscape:window-height="801"
     id="namedview7315"
     showgrid="false"
     inkscape:zoom="2"
     inkscape:cx="153.88858"
     inkscape:cy="148.01986"
     inkscape:window-x="-8"
     inkscape:window-y="-8"
     inkscape:window-maximized="1"
     inkscape:current-layer="layer3" />
  <g
     inkscape:groupmode="layer"
     id="layer3"
     inkscape:label="Wypełnienie"
     style="display:inline">
    <path
       style="fill:#9ba0ab;stroke:none;stroke-width:0.99929667"
       d="m 194.05859,2.7421875 c -5.51364,-0.085579 -10.98286,0.9539017 -13.8457,3.3730469 -5.30535,4.4824916 -4.97056,10.8335916 -5.44141,16.5605466 -2.01671,5.293871 -8.38282,9.759989 -9.76757,15.50586 -3.51127,14.575125 13.89651,18.042531 19.08007,28.568359 3.32757,6.758496 2.25411,15.389532 1.2168,22.648438 -2.5169,17.594902 -7.09233,26.881302 -21.68555,37.679682 C 159.57981,105.32332 145.9561,89.352333 128.29688,75.658203 122.0231,70.793428 115.12659,66.426496 108.08008,62.882812 100.14491,58.892029 91.240696,55.033017 82.373047,53.447266 71.821443,51.560249 59.783042,51.930246 49.363281,53.691406 31.095851,56.77899 23.72259,63.440853 14.119141,76.167969 8.9680482,82.994379 5.4819547,92.189172 4.2910156,100.44727 2.1514823,115.28254 3.1584748,133.47266 3.4375,148.45898 c 4.6369833,-4.56801 12.519484,-15.50857 19.982422,-7.42578 1.106297,1.19827 2.366173,4.31401 3.105469,5.73633 7.717822,-3.44777 10.509238,-1.19356 14.851562,5.62695 4.113995,-3.76184 9.826273,-9.67204 15.972656,-9.29296 2.420755,0.14904 4.673857,3.90738 7.113282,3.81836 3.342053,-0.12203 5.493317,-5.09607 8.861328,-5.2461 l 7.550781,3.625 c -6.967944,2.31551 -9.356479,11.13863 -15.474609,14.77344 -5.666565,3.36674 -12.721749,3.23077 -18.324219,6.89258 -4.860279,3.17671 -9.066009,8.21543 -13.773438,11.57617 -6.896761,4.9241 -19.755685,8.48998 -24.4023434,12.85156 2.2522294,1.02423 5.4679704,1.15915 7.5644534,2.56445 5.60207,3.75183 4.144993,10.04657 3.064453,15.88086 9.041764,7.05257 9.909526,10.10409 0.494141,21.86328 3.45467,2.20099 9.801068,0.85844 13.605468,0.85743 5.213903,0 9.313636,3.85701 11.59961,8.16797 3.501494,-2.2895 6.168383,-6.63419 10.27539,-7.77344 6.847141,-1.90042 12.76976,2.13848 14.806641,8.91797 0.7974,2.6546 -0.664063,5.74233 -0.230469,8.41992 -0.87158,1.49032 2.356183,7.78632 2.453125,11.82422 8.310756,9.9e-4 14.272199,1.12108 18.410156,9.08984 5.745336,-2.2645 11.488841,-12.38704 17.498051,-12.08398 5.04777,0.25407 5.84005,6.12626 7.52343,9.93359 2.44357,0.59698 11.17073,6.08337 13.77149,7.92578 2.50692,1.7744 5.74991,0.2232 8.52539,1.52149 7.67849,3.5898 9.99473,-4.77828 17.34375,-0.44532 2.19343,-1.00522 4.66508,-1.73332 7.16601,-1.44726 2.77447,0.31807 4.81551,2.86845 7.44922,0.70898 4.11928,-3.37775 5.1807,-11.01781 6.20703,-15.79687 2.44202,-11.37149 2.08994,-19.55299 6.7793,-30.35938 8.3826,-11.38459 11.3312,-26.98251 13.42578,-41.63476 0.75009,-5.24849 0.4094,-10.4028 1.10157,-15.5586 2.76993,4.06256 12.80684,8.97121 16.29882,11.4336 0.80805,-3.36562 1.39233,-7.11961 2.75,-7.69141 1.86131,-0.78392 4.5163,2.98369 5.17383,8.87891 7.12639,-3.1877 9.23554,-1.50316 12.04297,1.4375 3.1269,-5.19516 2.85233,-10.87781 8.98633,-13.81446 0.007,-2.2815 -1.00888,-5.26879 -0.37891,-7.48828 2.6996,-9.51711 10.73624,-4.83811 15.47852,-0.57617 7.32606,-3.04867 12.98317,4.88274 19.96679,4.92773 3.03106,0.02 3.25994,-4.33669 6.11329,-4.92382 2.37214,-0.48711 5.08035,1.49643 7.30273,2.18359 2.56981,-8.53289 11.8031,-4.69719 17.28516,-1.5625 -0.3055,-3.75283 -1.98834,-8.9481 -2.7461,-12.62891 -8.09001,-25.47092 -14.50257,-29.60406 -16.80078,-33.375 -3.22521,-3.30951 -5.30209,-6.38432 -8.62305,-7.91601 -9.99771,-8.18881 -18.08103,-10.20332 -30.77734,-11.43359 -6.56263,-0.63591 -24.45223,1.82923 -32.01953,6.27343 -0.35152,-9.083988 -1.32069,-18.192219 -1.71875,-27.314451 -0.29452,-6.759896 -0.87418,-15.683197 2.30664,-21.814453 1.85997,-3.585693 11.09972,-11.394713 9.66406,-15.949218 C 223.35138,25.341469 225.98516,30.667969 219.79883,18.25 217.30489,14.198505 212.17244,8.8538502 208.16797,6.1152344 205.13092,4.0384049 199.57223,2.8277666 194.05859,2.7421875 Z M 46.160156,103.86328 c 1.004716,-0.0144 2.14179,0.42284 3.34375,1.52539 0.854208,0.78318 1.596227,2.25356 1.169922,4.49805 -1.233091,1.48234 -3.364964,1.8209 -4.767578,1.96094 -5.980329,0.59895 -4.099864,-7.92219 0.253906,-7.98438 z m -19.130859,2.47461 c 1.08807,0.0527 1.369141,1.42383 1.369141,1.42383 -0.124798,0.75017 -1.435526,1.75001 -2.621094,1.6875 0,0 -2.371339,-1.12468 -0.125,-2.625 0.561585,-0.37508 1.014263,-0.50391 1.376953,-0.48633 z m 1.679687,12.42773 c 1.142738,-0.0281 2.307375,0.0417 3.494141,0.18555 2.232262,7.01455 -11.019413,13.66575 -13.103516,3.43945 2.959178,-2.56556 6.181162,-3.54066 9.609375,-3.625 z m -17.783203,5.5625 c 1.435161,0.37512 0.748496,6.12548 -1.3730466,4 -2.7783018,-2.78345 1.3730466,-3.99997 1.3730466,-4 z m 40.400391,0.73047 c 4.784763,-0.30606 8.983053,6.26443 1.855469,9.98047 -1.064066,0.55412 -2.393592,0.99528 -3.558594,0.98828 -1.821631,-0.012 -3.444944,-1.15063 -4.128906,-2.63476 -0.595927,-1.29309 -0.186891,-2.68308 0.589843,-4.23242 1.408708,-2.80863 3.369889,-3.9818 5.242188,-4.10157 z m 19.126953,3.70703 c 1.000441,-5.1e-4 1.811488,0.75629 1.810547,1.68946 -2.21e-4,0.9324 -0.810927,1.68801 -1.810547,1.6875 -0.998857,-4.9e-4 -1.808373,-0.75581 -1.808594,-1.6875 -9.4e-4,-0.93246 0.808916,-1.68897 1.808594,-1.68946 z m 195.349605,4.79688 c 3.74307,1.4656 7.98257,8.52581 4.97266,8.35156 -8.17619,-0.47334 -8.97014,-4.79836 -7.83398,-6.71289 0.0496,-0.90852 2.53196,-1.63375 2.86132,-1.63867 z m 16.26758,12.49805 c 3.56813,0.0894 9.1067,3.58072 9.37696,4.43164 0,0 0.61791,4.02135 -5.16211,2.20898 -5.78001,-1.81236 -6.3536,-5.2154 -5.60352,-6.45312 0.40813,-0.14367 0.87894,-0.20028 1.38867,-0.1875 z m 19.26758,8.07226 c -1.38552,0.38688 -3.44584,-2.39733 -3.82424,-3.35156 2.29057,-0.64559 4.41465,2.43312 3.82424,3.35156 z m -35.69922,-2.09961 c 3.88584,0.24392 8.78925,4.71867 6.7168,7.67383 -6.23916,2.5266 -10.40715,-0.73904 -9.9668,-6.29492 0.77315,-1.07175 1.95472,-1.46021 3.25,-1.37891 z m -14.06445,1.04298 c 2.16377,1.21574 2.89041,4.6357 1.52538,3.97265 -2.83751,-1.3783 -3.79491,-3.0254 -3.65428,-3.55664 0.41585,-0.6015 1.80468,-0.68359 2.1289,-0.41601 z M 31.455078,191.1543 c 0.494394,2.79361 -2.667675,3.59808 -4.992187,3.00195 z m 10.275391,18.51367 c 0.833142,-0.0116 1.737074,0.14961 2.703125,0.49219 l -7.986328,4 c 0.92901,-2.87314 2.783776,-4.4575 5.283203,-4.49219 z m 35.421875,11.28515 c 1.586539,0.0502 2.364431,2.23629 2.099609,2.39649 -3.30711,2.00043 -4.305399,0.0627 -4.742187,-0.75 1.033472,-1.25028 1.921423,-1.66932 2.642578,-1.64649 z m 10.414062,15.09376 c 0.506986,0.01 1.110685,0.36373 1.794922,1.36914 1.871949,2.75061 0.935547,5.4375 0.935547,5.4375 0,0 -0.748513,3.87562 -3.431641,1.0625 -2.683127,-2.81313 -1.060548,-6.25 -1.060546,-6.25 -10e-7,0 0.64635,-1.64032 1.761718,-1.61914 z m 33.746094,5.81445 c 0.68174,6.6e-4 1.23416,0.63349 1.23438,1.41406 -2.2e-4,0.78057 -0.55264,1.4134 -1.23438,1.41406 -0.6825,5.7e-4 -1.23611,-0.63262 -1.23633,-1.41406 2.2e-4,-0.78144 0.55383,-1.41463 1.23633,-1.41406 z m 14.21094,7.59961 c 2.9557,0.24452 6.69587,3.85612 8.29101,5.92773 2.38261,3.09428 3.08817,11.31537 -2.82422,8.48633 -5.91238,-2.82906 -10.23648,-9.81415 -8.73632,-12.20117 0.74456,-1.74053 1.92603,-2.32404 3.26953,-2.21289 z"
       id="path6131"
       inkscape:connector-curvature="0"
       sodipodi:nodetypes="scccccccccscccccccccccsccccccccccccccccccccccccccccccccccccccccccccsccccccccsccccccccccccccccccccsccccccccccccccccccccccccccccccccccccccccccccc" />
    <path
       style="fill:#7a7577;stroke:none;stroke-width:0.99929667"
       d="m 219.79987,40.503188 c 0,0 1.34616,0.618855 4.37415,0.298162 0,0 1.79988,-0.270169 6.77236,4.983939 1.85298,1.532839 6.02086,2.900127 8.17036,0.33786 3.7439,-4.462387 -1.35435,-15.81218 -4.23765,-19.370167 -6.90475,-8.518184 -14.8382,-7.398234 -25.15639,-7.920149 -4.94494,-0.650444 -11.38461,-1.373902 -15.51988,2.621982 -4.31496,4.169322 -4.68525,11.525727 -7.99985,16.666564 -1.11917,1.734984 -5.88539,2.758655 -4.99783,4.931936 1.51353,3.708121 11.02334,8.241491 14.51266,8.442036 8.31145,0.477606 10.38966,1.825377 24.08207,-10.992163 z"
       id="path6217"
       inkscape:connector-curvature="0"
       sodipodi:nodetypes="ccccccccccc" />
  </g>
  <g
     inkscape:groupmode="layer"
     id="layer1"
     inkscape:label="Kontur"
     style="display:inline">
    <path
       style="fill:#090909;stroke:none;stroke-width:0.99929667"
       d="m 194.86269,0.46461064 c -7.74555,-0.001368 -15.76637,2.11870676 -19.03928,6.75735426 -3.28166,4.6518991 0.068,10.8460211 -2.62658,15.6108751 -3.22275,5.700361 -8.75516,8.205672 -9.96619,15.288539 -1.51753,8.881264 4.71104,16.223736 10.9938,21.565318 2.9472,2.505654 6.86403,4.75267 8.39453,8.48039 3.81678,9.294057 1.05573,20.627302 -0.80923,29.967568 -0.82565,4.134915 -1.35407,8.354845 -3.6074,12.002655 -3.3126,5.36218 -6.04846,10.08571 -11.61388,12.50082 -3.41544,-6.3054 -4.83591,-12.16474 -8.53688,-18.50215 C 148.43126,87.662939 133.21632,73.426142 116.31686,64.879251 110.68205,62.029621 105.23532,59.143086 99.531717,56.625472 97.446313,55.704959 95.041612,54.718239 93.16709,54.124919 87.303747,52.269064 81.347053,50.443652 77.380317,50.184595 64.916729,49.370414 52.511046,50.669861 40.440517,53.753743 35.659409,54.975313 30.366335,56.151186 26.463295,59.325289 18.653523,65.676393 11.172151,73.969109 6.8429263,83.131336 4.3872684,88.328486 3.8172598,94.54036 2.7012386,100.1351 c -3.8015751,19.05822 -2.47114368,38.83859 -0.1988947,58.01283 3.1100616,-4.37197 3.2490282,-9.82375 7.1777557,-13.89565 1.0993684,-1.13926 2.3809724,-2.29818 3.8082464,-3.01434 8.98346,-4.505 10.959334,6.32865 10.978203,12.90911 2.376428,-2.34552 3.986148,-6.45649 7.078309,-7.91582 6.569494,-3.10068 8.770862,9.95126 9.894032,13.91714 -0.13643,-0.72404 6.471513,-17.6743 16.356157,-14.49734 2.36954,0.9222 4.059173,3.62194 5.608048,5.49536 5.197231,-4.18093 9.325253,-10.95593 15.880371,-6.18887 -4.463726,5.84328 -13.199839,11.25841 -19.873863,14.42311 -4.205746,1.99443 -8.95271,2.26121 -12.978848,4.76277 -6.671927,4.14392 -10.919006,11.00657 -17.970714,14.7474 -6.97673,3.69982 -19.9579348,5.31689 -22.9625782,13.26466 4.2287385,1.80239 11.9237272,2.55162 13.0470962,8.04084 0.744387,3.6378 -2.224334,8.4168 -3.063366,11.96358 1.984765,0.048 4.075195,-0.0388 5.951239,0.74235 9.919833,4.13392 2.22224,13.5318 -3.954493,16.26141 2.42375,9.91019 10.645082,4.98354 17.927814,6.14981 4.357998,0.69815 5.129279,6.38686 9.133553,6.81595 4.158723,0.4451 7.972738,-5.11272 11.875179,-6.30999 5.361961,-1.64636 11.713142,1.41267 12.311966,7.36296 0.39296,3.9049 -1.543416,8.18819 -2.328237,11.98702 0,0 3.016596,-1.55472 3.993492,-0.62513 2.334979,2.22189 -0.416721,6.12935 -0.998373,9.62713 9.673236,-0.20005 19.256718,-2.00444 19.96746,11.00244 4.345718,-1.59436 8.451497,-3.94643 11.810827,-7.18715 1.92387,-1.85641 4.11536,-5.76008 7.15241,-5.75909 4.15423,0 5.32818,5.87966 5.99609,8.94534 6.68311,-0.31506 10.7954,1.98545 13.97722,8.00178 0.59107,-0.91264 7.85926,0.84357 11.46959,1.18971 0.3946,0.0379 3.82351,0.0279 5.66265,-0.42001 1.84534,-0.44947 3.46069,-1.49521 5.30386,-1.76993 1.05729,-0.15758 2.07362,-0.12632 3.2057,0.084 1.38762,0.25774 2.6696,0.87939 3.06142,1.04125 1.55377,-0.49559 2.82622,-1.2727 4.34059,-1.47102 1.34063,-0.17557 2.70973,0.0641 4.04613,0.26959 1.01507,0.15608 3.38315,0.95807 3.27592,0.75992 1.30523,-1.05743 2.72632,-2.14869 3.97009,-3.20773 5.34524,-4.68754 7.53307,-25.07677 8.75136,-32.85883 3.01908,-13.12591 7.44281,-16.61768 12.06628,-29.88161 3.98151,-11.42155 5.73089,-23.78228 5.73089,-35.75793 l 14.97559,12.00265 c 1.37077,-3.58879 2.43603,-7.19759 2.99512,-11.00243 3.7429,3.89586 3.17084,7.91275 2.99512,13.00288 l 8.98536,-6.00133 c 1.12616,4.74605 2.52089,8.67591 6.98861,11.00243 0,-4.65403 -0.21313,-9.43556 0.97693,-13.98357 0.41233,-1.57234 1.02242,-3.71784 2.99121,-3.83287 1.74815,-0.10203 3.71334,1.88992 5.01722,2.81312 -0.012,-4.23494 -3.45884,-17.24304 4.01299,-16.70291 4.09632,0.29606 6.98409,2.67781 11.21219,5.32539 7.7374,-4.62602 17.36526,5.50123 18.7195,7.37664 2.22936,-8.24983 6.80291,-11.36151 12.97885,-4.00089 1.66828,-2.19149 1.66381,-5.56017 3.59765,-7.46259 3.38848,-3.33474 9.49201,2.01839 15.12184,4.46193 -0.0389,-14.27716 -12.67629,-37.64264 -17.90832,-47.0104 -4.71556,-6.87361 -11.80345,-13.17022 -17.78351,-16.30439 -17.36371,-8.698129 -38.24168,-8.517704 -55.90889,-1.6996 0,-13.94058 -3.75336,-30.556756 0.85213,-44.009731 1.85797,-5.426101 6.75447,-8.888167 9.1316,-14.003098 1.39672,0.746764 2.43994,1.503441 4.03834,1.72499 15.26512,2.115968 7.43466,-18.332193 2.42183,-24.716404 -4.99386,-6.361208 -9.58868,-5.539461 -13.79782,-7.054296 C 217.72499,14.557154 214.05683,6.9851389 210.07033,4.1313877 206.74375,1.7504454 200.887,0.46562415 194.86269,0.46456084 Z m -0.47774,2.53767086 c 4.82271,-0.1290262 9.58582,0.8805391 12.76826,2.9908959 4.33293,2.8736758 7.09326,7.6808876 11.58853,11.7701816 -3.52977,0.486244 -2.46015,0.916366 -8.77866,0.132842 -1.58169,-0.196137 -4.04447,-0.07297 -6.47187,-0.308661 -1.25104,-0.121476 -1.53691,-0.181901 -2.66559,-0.205124 -2.87232,0.31847 -3.40115,0.443229 -5.68214,2.514228 0.15422,-0.02468 -1.41268,1.724546 -1.9363,2.332547 -0.11783,0.136819 -1.4223,1.778269 -2.31263,2.873683 -0.15346,0.140998 -0.30205,0.283492 -0.4407,0.431736 v 0.002 c -0.002,0.0024 -0.002,0.0015 -0.004,0.0039 -1.92386,2.060566 -2.50387,4.795015 -3.91745,7.579801 -1.42068,2.80072 -7.26912,7.668594 -6.65712,10.781683 0.77474,3.941572 6.98052,6.954166 10.32107,8.113123 10.54623,3.658045 25.62735,-0.855856 30.94968,-10.893076 l 5.99023,1.000221 c -1.1621,7.579076 -9.04359,10.772683 -10.71886,18.003983 -4.67738,20.185965 2.33075,40.672705 -0.56353,61.013505 -1.5974,11.22547 -5.20901,20.8587 -10.17092,31.00294 -2.61474,5.34517 -6.8418,10.26709 -8.23853,16.1774 -1.4696,6.21838 -0.91612,12.53785 -1.34741,18.83425 -0.53313,7.80873 -2.2282,15.47442 -4.29184,23.0051 -2.70759,9.88118 -9.15582,18.63712 -11.78354,28.50631 -3.34466,12.5685 -1.68757,23.48835 -7.17557,33.49791 -1.02894,1.87671 -4.43308,4.54632 -4.56896,4.50659 -0.81365,-0.2379 -2.42783,-0.43501 -3.18035,-0.63686 -1.82358,-0.4892 -5.6022,0.0757 -6.24764,0.30866 -0.21138,0.0763 -1.18934,0.47396 -1.8037,0.41611 -0.74391,-0.07 -2.15968,-0.54819 -2.66558,-0.66225 -2.60023,-0.58642 -4.84047,0.19091 -7.94798,1.08422 -2.03428,0.58478 -4.09021,1.09863 -6.30028,0.78728 -3.26667,-0.46021 -7.3901,-1.79447 -10.11828,-1.66053 -0.71848,-4.13375 -9.86121,-7.75952 -13.32204,-7.75953 -0.0789,-1.69138 -0.45156,-3.75437 -0.94573,-5.39572 -1.30487,-4.33695 -5.7442,-7.41981 -10.12606,-4.95227 -5.661797,3.18768 -7.410187,9.33678 -14.261921,10.97312 -2.101176,-8.77493 -9.647179,-9.00099 -17.346731,-9.00199 -0.02566,-2.17513 1.202516,-6.36226 -1.203117,-8.00568 -0.89273,-0.37968 -0.893399,-0.44949 -1.745699,-0.83107 0.328087,-1.16548 0.521335,-1.81612 0.755125,-2.60328 0.993681,-4.72505 0.54388,-8.09091 -2.673377,-12.45588 -5.743839,-7.79473 -19.293558,-4.46736 -23.711358,2.89127 -7.363999,-12.15919 -21.459927,-3.1482 -24.02335,-8.18932 8.452725,-5.8938 11.892919,-19.10573 -0.935975,-21.81732 3.754083,-8.87797 0.339148,-17.43786 -9.983729,-18.00398 6.979825,-4.9351 15.697318,-6.48063 22.962578,-10.99462 5.507025,-3.42177 9.715866,-8.626 14.975595,-12.37383 5.523898,-3.93688 12.195781,-4.72374 17.881015,-8.05648 5.679944,-3.32974 9.933356,-8.41364 15.502081,-12.17847 2.837226,5.46695 2.558331,11.28924 2.558331,17.59764 2.31303,-1.3833 2.95778,-2.48755 3.993492,-5.00111 7.083356,4.01189 8.9586,12.38374 9.98373,20.00443 2.95918,-2.21649 3.87582,-8.32698 8.06498,-8.74608 2.72057,-0.27106 5.57479,2.62273 7.90899,3.74497 0,-4.43898 -0.0329,-8.66392 0.99837,-13.00287 3.22275,2.53556 4.82414,5.07012 5.99024,9.00199 1.51752,-5.01111 -5.03153,-15.59297 -8.78841,-7.85526 -0.97142,2.00044 -0.33872,4.73257 -0.19695,6.85504 -4.89402,-2.60258 -9.27289,-2.16848 -11.98047,3.00066 -3.718245,-7.06756 -4.66031,-14.49121 -13.977226,-15.00332 -0.06839,-8.1678 -2.759303,-18.25693 -12.978849,-17.84184 -3.341454,0.13504 -6.771365,4.80067 -9.484543,5.91342 -2.530376,-1.31579 -4.770526,-4.07583 -7.487797,-3.96182 -7.034037,0.29307 -10.14976,4.61875 -14.975595,8.8887 -1.302777,-8.93098 -7.931375,-10.32429 -14.975595,-6.00134 -0.62588,-1.67136 -1.165317,-3.34428 -2.22489,-4.81161 -6.049641,-8.37782 -16.7441962,-0.18946 -19.7393152,5.0617 C 3.126327,133.39446 1.5697452,100.70024 10.658973,82.301074 14.728841,74.062552 23.07302,65.982411 30.456787,60.669336 c 6.994901,-5.033214 16.710468,-5.610038 24.959325,-7.15588 32.268612,-6.047038 64.242308,13.056216 85.860078,35.619208 10.36111,10.814692 19.72984,23.794256 21.9642,39.008626 17.68518,-4.9711 20.7373,-24.71146 23.20827,-40.008848 1.19805,-7.41324 1.71727,-17.242745 -2.33213,-23.962331 -4.91199,-8.152104 -20.08215,-13.167583 -18.39191,-25.048511 0.83564,-5.870599 6.50592,-8.993851 8.83912,-14.042168 2.40408,-5.201752 0.2266,-10.873725 4.16119,-15.8589781 3.1606,-4.0047329 9.45939,-6.0522818 15.66002,-6.2181724 z m 7.85633,16.5720245 c 1.30262,-0.03505 2.58571,0.05517 3.56646,0.150425 2.50012,0.242822 3.9881,0.354869 5.08352,0.414153 5.17212,0.585038 12.39975,-1.796968 18.0682,1.988722 4.7852,3.195407 9.51585,10.226697 10.05198,15.993773 0.21665,2.323813 0.41038,8.190653 -3.37145,7.558313 -8.58601,-1.435418 -11.73945,-13.716776 -18.48746,-17.560526 1.03931,4.538104 3.08173,7.350695 5.45986,11.295467 -6.13051,-1.078266 -14.39629,-0.404181 -21.43382,0.787284 -3.58117,0.606234 -6.83087,0.853111 -8.98536,3.920789 8.75573,-0.449199 17.02026,-3.000663 25.9577,-3.000663 -9.3927,11.704589 -26.53776,13.755142 -35.94143,1.000221 5.30665,-3.078739 6.9385,-8.635551 8.83131,-13.901513 1.17934,-1.641529 1.2648,-1.614665 2.08449,-2.758423 0.95028,-1.325965 3.42047,-4.513423 5.42865,-5.284372 1.06257,-0.407924 2.38475,-0.568604 3.68735,-0.60365 z M 244.64041,102.562 c 11.64655,-0.16629 24.12975,2.44218 33.41288,8.73963 6.79528,4.8251 11.42386,8.74611 14.97565,15.83944 5.50226,11.64631 14.67209,26.00276 14.97559,39.00863 -5.00085,-4.27895 -15.42086,-8.52088 -16.97234,1.00022 -5.16059,-2.75861 -10.15944,-2.60057 -12.97885,3.00067 -4.02843,-2.30651 -8.33042,-4.81659 -12.97884,-5.60476 -2.32322,-0.39409 -2.96018,1.26113 -5.24146,0.75602 -2.93921,-0.65114 -6.76398,-4.05972 -9.73414,-4.67485 -8.32443,-1.72738 -9.04126,6.81299 -7.98698,12.52425 -7.28413,1.15426 -8.05887,8.51789 -8.11178,14.8783 -3.91662,-5.47422 -2.14351,-8.22783 -10.73251,-2.37554 -0.021,-1.77839 -0.88907,-5.53876 -1.72571,-7.18713 -7.50976,-7.30262 -6.89325,2.4751 -8.38282,5.68681 -3.3745,-2.97966 -11.01494,-7.70146 -12.19302,-12.09643 -0.69187,-2.58057 0.77471,-5.60649 1.79006,-7.908 2.54684,-5.77328 5.69977,-11.3375 8.48421,-17.00376 5.66277,-11.51855 7.36388,-26.28882 7.90899,-39.00863 8.76459,-3.15735 17.30493,-5.32868 25.49107,-5.57487 z"
       id="path7295"
       inkscape:connector-curvature="0"
       sodipodi:nodetypes="sccccccccccsscccccccccccccccccccccccccccccccccccccccccccccccccccccccccccccccccccccssccsccccccccccccccccccccacccccccccccccccccccccccccccccccccccccccccccccccccccccsccccccccccccccscccccccccccccccccccc" />
    <path
       style="fill:#090909;stroke:none;stroke-width:0.99929667"
       d="m 45.669922,101.01172 c -0.400746,0.0227 -0.799851,0.09 -1.195313,0.20898 -4.045508,1.21727 -7.320502,8.81098 -3.43164,11.88868 2.108065,1.66836 6.036972,0.98778 8.363281,0.2246 8.393447,-2.75216 2.274859,-12.66255 -3.736328,-12.32226 z m 0.490234,2.85156 c 1.004716,-0.0144 2.14179,0.42284 3.34375,1.52539 0.854208,0.78318 1.596227,2.25356 1.169922,4.49805 -1.233091,1.48234 -3.364964,1.8209 -4.767578,1.96094 -5.980329,0.59895 -4.099864,-7.92219 0.253906,-7.98438 z"
       id="path6449"
       inkscape:connector-curvature="0" />
    <path
       style="fill:#090909;stroke:none;stroke-width:0.99929667"
       d="m 26.347656,104.41797 c -1.551503,0.0222 -3.011636,0.82741 -3.392578,2.8418 -0.294819,1.55934 0.06087,2.73262 1.011719,4.18945 1.529407,0.46909 2.279127,0.23938 3.480469,-0.34375 6.175167,-2.99542 2.313697,-6.73639 -1.09961,-6.6875 z m 0.681641,1.91992 c 1.08807,0.0527 1.369141,1.42383 1.369141,1.42383 -0.124798,0.75017 -1.435526,1.75001 -2.621094,1.6875 0,0 -2.371339,-1.12468 -0.125,-2.625 0.561585,-0.37508 1.014263,-0.50391 1.376953,-0.48633 z"
       id="path6475"
       inkscape:connector-curvature="0" />
    <path
       style="fill:#090909;stroke:none;stroke-width:0.99929667"
       d="m 29.859375,115.89062 c -0.466825,0.006 -0.936921,0.0654 -1.400391,0.18555 -2.851853,0.74016 -9.276058,1.82729 -10.953125,4.38086 -4.404921,6.70648 4.672888,10.60366 9.955079,9.11133 3.346046,-0.94621 7.284773,-3.80194 8.017578,-7.42774 0.739133,-3.65655 -2.351369,-6.29213 -5.619141,-6.25 z m -1.150391,2.875 c 1.142738,-0.0281 2.307375,0.0417 3.494141,0.18555 2.232262,7.01455 -11.019413,13.66572 -13.103516,3.43945 2.959178,-2.56556 6.181162,-3.54067 9.609375,-3.625 z"
       id="path6533"
       inkscape:connector-curvature="0" />
    <path
       style="fill:#090909;stroke:none;stroke-width:0.99929667"
       d="m 10.664062,122.18359 c -0.7268867,-0.006 -1.548875,0.28744 -2.429687,0.98829 -3.2045277,2.55056 -0.4055643,10.59532 3.695313,7.30859 3.259151,-2.61195 1.884219,-8.27137 -1.265626,-8.29688 z m 0.261719,2.14453 c 1.435161,0.37509 0.748496,6.12548 -1.3730466,4 -2.7783018,-2.78345 1.3730466,-4 1.3730466,-4 z"
       id="path6573"
       inkscape:connector-curvature="0" />
    <path
       style="fill:#090909;stroke:none;stroke-width:0.99929667"
       d="m 51.775391,121.95703 c -1.317991,0.007 -2.747321,0.37575 -4.238282,1.21094 -10.286037,5.76128 -3.242658,20.78628 7.820313,13.88476 7.391101,-4.60959 3.535115,-15.13109 -3.582031,-15.0957 z m -0.449219,3.10156 c 4.784763,-0.30606 8.983053,6.26443 1.855469,9.98047 -1.064066,0.55412 -2.393592,0.99528 -3.558594,0.98828 -1.821631,-0.012 -3.444944,-1.15063 -4.128906,-2.63476 -0.595927,-1.29309 -0.186891,-2.68308 0.589843,-4.23242 1.408708,-2.80863 3.369889,-3.9818 5.242188,-4.10157 z"
       id="path6577"
       inkscape:connector-curvature="0" />
    <path
       style="fill:#090909;stroke:none;stroke-width:0.99929667"
       d="m 71.173828,126.55859 c -0.778206,-0.0656 -1.644889,0.11392 -2.550781,0.62891 -4.865172,2.7666 -1.435479,9.53842 3.617187,6.75781 4.011601,-2.20805 2.305819,-7.1025 -1.066406,-7.38672 z m -0.720703,2.20703 a 1.809551,1.6878735 0 0 1 1.810547,1.68946 1.809551,1.6878735 0 0 1 -1.810547,1.6875 1.809551,1.6878735 0 0 1 -1.808594,-1.6875 1.809551,1.6878735 0 0 1 1.808594,-1.68946 z"
       id="path6609"
       inkscape:connector-curvature="0" />
    <path
       style="fill:#090909;stroke:none;stroke-width:0.99929667"
       d="m 31.519531,188.58008 c -0.368221,0.0144 -0.728282,0.0577 -1.066406,0.12695 -2.603558,0.53412 -5.539453,1.99755 -6.697266,4.53711 -1.345607,2.95065 0.85951,4.9065 3.75,4.35938 2.561026,-0.48511 6.565327,-2.3006 7.857422,-4.70313 1.690894,-3.1437 -1.266198,-4.42129 -3.84375,-4.32031 z m -0.06445,2.57422 c 0.494394,2.79361 -2.667675,3.59808 -4.992187,3.00195 z"
       id="path7029"
       inkscape:connector-curvature="0" />
    <path
       style="fill:#090909;stroke:none;stroke-width:0.99929667"
       d="m 41.355469,206.50391 c -1.136032,-0.0185 -2.177219,0.12237 -2.869141,0.39843 -4.887735,1.94944 -7.467398,12.18617 -0.03711,10.13672 2.204507,-0.60813 7.74731,-3.23229 8.804687,-5.38476 1.77049,-3.60305 -2.490343,-5.09483 -5.898436,-5.15039 z m 0.375,3.16406 c 0.833142,-0.0116 1.737074,0.14961 2.703125,0.49219 l -7.986328,4 c 0.92901,-2.87314 2.783776,-4.4575 5.283203,-4.49219 z"
       id="path7063"
       inkscape:connector-curvature="0" />
    <path
       style="fill:#090909;stroke:none;stroke-width:0.99929667"
       d="m 76.583984,218.33203 c -0.938987,0.003 -1.892504,0.26281 -2.763672,0.85938 -5.449218,3.73082 1.509533,9.88874 6.236329,6.78906 4.389365,-2.87771 0.596288,-7.66221 -3.472657,-7.64844 z m 0.56836,2.62109 c 1.586539,0.0502 2.364431,2.23629 2.099609,2.39649 -3.30711,2.00043 -4.305399,0.0627 -4.742187,-0.75 1.033472,-1.25028 1.921423,-1.66932 2.642578,-1.64649 z"
       id="path7101"
       inkscape:connector-curvature="0" />
    <path
       style="fill:#090909;stroke:none;stroke-width:0.99929667"
       d="m 87.363281,233.2832 c -0.738055,0.0518 -1.523468,0.33756 -2.341797,0.91407 -5.426856,3.82384 -1.073785,17.58253 5.763672,12.9375 4.579462,-3.1122 1.744509,-14.21408 -3.421875,-13.85157 z m 0.203125,2.76368 c 0.506986,0.01 1.110685,0.36373 1.794922,1.36914 1.871949,2.75061 0.935547,5.4375 0.935547,5.4375 0,0 -0.748513,3.87562 -3.431641,1.0625 -2.683127,-2.81313 -1.060546,-6.25 -1.060546,-6.25 -10e-7,0 0.64635,-1.64032 1.761718,-1.61914 z"
       id="path7137"
       inkscape:connector-curvature="0" />
    <path
       style="fill:#090909;stroke:none;stroke-width:0.99929667"
       d="m 121.13867,239.40625 c -0.7194,0.001 -1.47818,0.24274 -2.22265,0.80273 -3.75987,2.82963 1.09416,9.59852 4.78515,6.30079 2.91537,-2.60627 0.55491,-7.10838 -2.5625,-7.10352 z m 0.17383,2.45508 a 1.2354236,1.4145265 0 0 1 1.23438,1.41406 1.2354236,1.4145265 0 0 1 -1.23438,1.41406 1.2354236,1.4145265 0 0 1 -1.23633,-1.41406 1.2354236,1.4145265 0 0 1 1.23633,-1.41406 z"
       id="path7163"
       inkscape:connector-curvature="0" />
    <path
       style="fill:#090909;stroke:none;stroke-width:0.99929667"
       d="m 135.80469,246.61328 c -1.76149,-0.0147 -3.5306,0.46452 -5.19336,1.58399 -2.74852,1.8494 -2.07053,5.38046 -0.89844,7.95703 2.16947,4.76606 9.73526,15.1852 15.99805,10.98828 8.89466,-5.95989 -0.39421,-20.44991 -9.90625,-20.5293 z m -0.28125,2.84766 c 2.9557,0.24452 6.69587,3.85612 8.29101,5.92773 2.38261,3.09428 3.08817,11.31537 -2.82422,8.48633 -5.91238,-2.82906 -10.23648,-9.81415 -8.73632,-12.20117 0.74456,-1.74053 1.92603,-2.32404 3.26953,-2.21289 z"
       id="path7187"
       inkscape:connector-curvature="0" />
    <path
       style="fill:#090909;stroke:none;stroke-width:0.99929667"
       d="m 265.11133,132.08594 c -4.84888,0.30618 -6.2946,9.31422 1.95508,10.67383 2.08161,0.34308 3.54516,0.81903 5.50976,-0.39454 0.77939,-1.76439 -0.002,-3.62182 -0.83008,-5.24218 -0.67589,-1.32129 -1.60849,-2.75401 -2.81054,-3.65821 -1.40415,-1.05717 -2.70525,-1.44956 -3.82422,-1.3789 z m 1.4414,2.22656 c 2.43471,0.55833 6.04973,6.89956 3.03516,6.85156 -6.17619,-0.0983 -7.54521,-3.65146 -6.20898,-5.65039 0.62864,-0.94041 1.05764,-1.68645 3.17382,-1.20117 z"
       id="path6657"
       inkscape:connector-curvature="0"
       sodipodi:nodetypes="ccccccssss" />
    <path
       style="fill:#090909;stroke:none;stroke-width:0.99929667"
       d="m 280.89648,143.7207 c -0.88956,-0.004 -1.61851,0.1454 -2.08593,0.4961 -2.24534,1.68337 -0.73996,4.96225 0.67773,6.59961 2.6976,3.11869 9.16957,6.88403 13.20899,4.14843 2.29127,-1.55235 1.82989,-4.54251 0.31835,-6.50195 -1.41631,-1.83666 -8.26434,-4.72631 -12.11914,-4.74219 z m 1.17383,2.33985 c 3.56813,0.0894 9.1067,3.58072 9.37696,4.43164 0,0 0.61791,4.02135 -5.16211,2.20898 -5.78001,-1.81236 -6.3536,-5.2154 -5.60352,-6.45312 0.40813,-0.14367 0.87894,-0.20028 1.38867,-0.1875 z"
       id="path6757"
       inkscape:connector-curvature="0" />
    <path
       style="fill:#090909;stroke:none;stroke-width:0.99929667"
       d="m 264.77344,149.72266 c -0.82812,0.0295 -1.63304,0.22275 -2.37696,0.62109 -3.09296,1.65636 -2.25947,6.31264 -0.57421,8.66016 2.41207,3.35875 8.23527,5.01554 11.90429,2.70703 2.46698,-1.55235 1.60626,-4.43803 0.31836,-6.52149 -1.63696,-2.64852 -5.68298,-5.59455 -9.27148,-5.46679 z m 0.86523,2.31054 c 3.88584,0.24392 8.78925,4.71867 6.7168,7.67383 -6.23916,2.5266 -10.40715,-0.73904 -9.9668,-6.29492 0.77315,-1.07175 1.95472,-1.46021 3.25,-1.37891 z"
       id="path6799"
       inkscape:connector-curvature="0" />
    <path
       style="fill:#090909;stroke:none;stroke-width:0.99929667"
       d="m 298.00977,149.13281 c -0.55072,-0.0377 -1.06397,0.0455 -1.5,0.2793 -0.32001,1.32846 -0.16209,1.89178 0.37304,2.875 3.87968,7.13857 9.55173,1.30948 4.00977,-2.11328 -0.94285,-0.58263 -1.96496,-0.97822 -2.88281,-1.04102 z M 298.07617,151 c 2.9412,0.231 4.0155,2.86796 3.01172,2.94531 -1.63953,-0.17909 -2.65224,-1.89961 -3.01172,-2.94531 z"
       id="path6803"
       inkscape:connector-curvature="0"
       sodipodi:nodetypes="cccccccc" />
    <path
       style="fill:#090909;stroke:none;stroke-width:0.99929667"
       d="m 250.67969,151.8457 c -2.47026,0.12504 -3.82923,3.66983 1.27539,5.78711 0.96642,0.40109 2.06705,0.58298 2.69531,-0.0605 0.4862,-1.38441 0.2835,-2.14758 -0.41601,-3.32227 -1.0795,-1.81165 -2.43185,-2.46113 -3.55469,-2.4043 z m 1.45703,1.90235 c 1.44888,0.92755 2.0625,3.10259 0.68164,2.78515 -1.28335,-0.29501 -3.40678,-1.64781 -2.85742,-2.88476 0.29469,-0.66353 1.51401,-0.32404 2.17578,0.0996 z"
       id="path6821"
       inkscape:connector-curvature="0"
       sodipodi:nodetypes="ccccccssas" />
    <path
       style="fill:#090909;stroke:none;stroke-width:0.99929667"
       d="m 187.20134,8.1147406 v 2.0004424 c 5.4611,-6.1e-4 13.34625,0.793176 16.97234,-4.000885 -5.80354,0.5788281 -11.04599,1.9998024 -16.97234,2.0004426 z"
       id="path6139"
       inkscape:connector-curvature="0" />
    <path
       style="fill:#090909;stroke:none;stroke-width:0.99929667"
       d="m 182.20948,13.115847 c 1.38366,0.508893 12.78914,1.837298 15.82482,0.988913 3.18691,-0.890646 8.12403,-3.429519 10.93807,-5.1261493 -1.46728,-0.3831407 -2.4243,-0.8290976 -3.12028,-0.96526 -0.25835,0.1101687 -5.81719,3.5329863 -9.30173,3.7902373 -3.44813,0.254563 -12.07188,-0.742829 -11.56729,-0.639918 z"
       id="path6171"
       inkscape:connector-curvature="0"
       sodipodi:nodetypes="csccscc" />
  </g>
  <g
     inkscape:groupmode="layer"
     id="layer2"
     inkscape:label="Oczy"
     style="display:inline">
    <path
       style="fill:#1e5f80;stroke:none"
       d="m 184.375,13.34375 c -1.20147,1.312723 -1.3583,3.394483 -1.12222,5.128403 0.17572,1.290638 0.81059,2.638563 1.82547,3.455039 1.42201,1.144002 3.49881,1.87481 5.27648,1.461621 1.46944,-0.341548 2.61982,-1.705833 3.38162,-3.007977 1.12086,-1.915873 2.11324,-4.397243 1.4199,-6.505836 -0.17753,-0.539914 -0.74339,-0.941331 -1.28125,-1.125 -3.0026,-1.02534 -7.85091,-1.208036 -9.5,0.59375 z"
       id="path6173"
       inkscape:connector-curvature="0"
       sodipodi:nodetypes="saaaaaas" />
    <path
       style="fill:#1e5f80;stroke:none"
       d="m 205.43555,8.5898438 c -1.75827,0.534662 -3.99698,1.1476542 -4.4043,3.3164062 -0.22042,1.173597 0.29585,3.103604 0.90625,4.53125 0.98483,2.303393 6.34824,1.934223 7.76367,-0.125 0.63495,-0.92375 0.92523,-2.100826 0.9961,-3.408203 C 210.82,10.640023 208.83083,9.0248329 208.34375,8.75 c -0.4815,-0.1665875 -1.97933,-0.4426117 -2.9082,-0.1601562 z"
       id="path6155"
       inkscape:connector-curvature="0"
       sodipodi:nodetypes="assscca" />
    <path
       style="fill:#0da0e9;stroke:none"
       d="m 193.5,14.53125 c -0.68571,-1.0548 -2.175,-1.29395 -3.54,-1.30905 -11.889,-0.1314 -0.737,16.2023 3.317,4.8033 0.458,-1.2876 0.85913,-2.515724 0.223,-3.49425 z"
       id="path6183"
       inkscape:connector-curvature="0"
       sodipodi:nodetypes="acca" />
    <path
       style="fill:#0da0e9;stroke:none"
       d="m 204.559,9.8596 c -0.87375,0.513328 -2.35841,1.225361 -2.38914,2.051945 -0.13243,3.562721 1.90296,7.128028 5.52814,4.751255 4.05,-2.6559 0.98575,-9.25795 -3.139,-6.8032 z"
       id="path6159"
       inkscape:connector-curvature="0"
       sodipodi:nodetypes="cscc" />
  </g>
</svg>
