<?xml version="1.0" encoding="UTF-8" standalone="no"?>
<svg
   xmlns:dc="http://purl.org/dc/elements/1.1/"
   xmlns:cc="http://creativecommons.org/ns#"
   xmlns:rdf="http://www.w3.org/1999/02/22-rdf-syntax-ns#"
   xmlns:svg="http://www.w3.org/2000/svg"
   xmlns="http://www.w3.org/2000/svg"
   xmlns:sodipodi="http://sodipodi.sourceforge.net/DTD/sodipodi-0.dtd"
   xmlns:inkscape="http://www.inkscape.org/namespaces/inkscape"
   width="311"
   height="281"
   version="1.1"
   id="svg7313"
   sodipodi:docname="goose-parts.svg"
   inkscape:version="0.92.4 (5da689c313, 2019-01-14)"
   inkscape:export-filename="D:\Programowanie\RiC_Magic\Assets\Graphics\goose_beak.png"
   inkscape:export-xdpi="384"
   inkscape:export-ydpi="384">
  <metadata
     id="metadata7319">
    <rdf:RDF>
      <cc:Work
         rdf:about="">
        <dc:format>image/svg+xml</dc:format>
        <dc:type
           rdf:resource="http://purl.org/dc/dcmitype/StillImage" />
        <dc:title />
      </cc:Work>
    </rdf:RDF>
  </metadata>
  <defs
     id="defs7317" />
  <sodipodi:namedview
     pagecolor="#ffffff"
     bordercolor="#666666"
     borderopacity="1"
     objecttolerance="10"
     gridtolerance="10"
     guidetolerance="10"
     inkscape:pageopacity="0"
     inkscape:pageshadow="2"
     inkscape:window-width="3840"
     inkscape:window-height="2004"
     id="namedview7315"
     showgrid="false"
     inkscape:zoom="5.6568542"
     inkscape:cx="131.25817"
     inkscape:cy="145.29354"
     inkscape:window-x="-16"
     inkscape:window-y="-16"
     inkscape:window-maximized="1"
     inkscape:current-layer="layer7" />
  <g
     inkscape:groupmode="layer"
     id="layer5"
     inkscape:label="Skrzydło_lewe"
     style="display:inline">
    <path
       style="fill:#9ba0ab;fill-opacity:1;stroke:none;stroke-width:1px;stroke-linecap:butt;stroke-linejoin:miter;stroke-opacity:1"
       d="m 250.30078,102.16406 c -7.77602,0.0893 -17.71777,1.87441 -32.5039,6.30078 -24.25784,14.74748 -28.69544,48.38409 -19.42188,66.28516 5.12828,3.17652 9.76483,7.91853 15.37109,11.73438 3.40655,-19.61649 8.42635,-2.71701 8.46485,1.02343 8.82452,-4.69769 7.36896,-5.4485 11.90429,5.11524 1.90094,-7.44025 0.76755,-21.89439 9.38282,-14.40625 -2.08925,-25.55486 10.65619,-12.46811 17.61133,-10.70899 5.02494,-4.02009 13.89276,3.0764 17.55664,6.29492 3.04235,-12.6583 12.24073,-5.04736 13.10351,-4.51562 2.95392,-11.01167 13.56109,-3.54773 17.97266,-1.32422 -2.14628,-17.20145 -17.03366,-52.09501 -34.49805,-59.73633 -8.52796,-3.48751 -14.94562,-6.17732 -24.94336,-6.0625 z m 14.95117,32 c 0.34763,-0.0164 0.77174,0.0271 1.30078,0.14844 2.43471,0.55833 6.04973,6.89956 3.03516,6.85156 -6.17619,-0.0983 -7.54521,-3.65146 -6.20898,-5.65039 0.47148,-0.70531 0.83016,-1.30043 1.87304,-1.34961 z m 16.81836,11.89649 c 3.56813,0.0894 9.1067,3.58072 9.37696,4.43164 0,0 0.61791,4.02135 -5.16211,2.20898 -5.78001,-1.81236 -6.3536,-5.2154 -5.60352,-6.45312 0.40813,-0.14367 0.87894,-0.20028 1.38867,-0.1875 z M 298.07617,151 c 2.9412,0.231 4.0155,2.86796 3.01172,2.94531 -1.63953,-0.17909 -2.65224,-1.89961 -3.01172,-2.94531 z m -32.4375,1.0332 c 3.88584,0.24392 8.78925,4.71867 6.7168,7.67383 -6.23916,2.5266 -10.40715,-0.73904 -9.9668,-6.29492 0.77315,-1.07175 1.95472,-1.46021 3.25,-1.37891 z m -15.03515,1.24414 c 0.48733,-0.0253 1.11959,0.20593 1.5332,0.47071 1.44888,0.92755 2.0625,3.10259 0.68164,2.78515 -1.28335,-0.29501 -3.40678,-1.64781 -2.85742,-2.88476 0.11051,-0.24883 0.35018,-0.35592 0.64258,-0.3711 z"
       id="path1328"
       inkscape:connector-curvature="0" />
    <path
       style="display:inline;fill:#090909;stroke:none;stroke-width:0.99929667"
       d="m 265.11133,132.08594 c -4.84888,0.30618 -6.2946,9.31422 1.95508,10.67383 2.08161,0.34308 3.54516,0.81903 5.50976,-0.39454 0.77939,-1.76439 -0.002,-3.62182 -0.83008,-5.24218 -0.67589,-1.32129 -1.60849,-2.75401 -2.81054,-3.65821 -1.40415,-1.05717 -2.70525,-1.44956 -3.82422,-1.3789 z m 0.14062,2.07812 c 0.34763,-0.0164 0.77174,0.0271 1.30078,0.14844 2.43471,0.55833 6.04973,6.89956 3.03516,6.85156 -6.17619,-0.0983 -7.54521,-3.65146 -6.20898,-5.65039 0.47148,-0.70531 0.83016,-1.30043 1.87304,-1.34961 z m 15.64453,9.55664 c -0.88956,-0.004 -1.61851,0.1454 -2.08593,0.4961 -2.24534,1.68337 -0.73996,4.96225 0.67773,6.59961 2.6976,3.11869 9.16957,6.88403 13.20899,4.14843 2.29127,-1.55235 1.82989,-4.54251 0.31835,-6.50195 -1.41631,-1.83666 -8.26434,-4.72631 -12.11914,-4.74219 z m 1.17383,2.33985 c 3.56813,0.0894 9.1067,3.58072 9.37696,4.43164 0,0 0.61791,4.02135 -5.16211,2.20898 -5.78001,-1.81236 -6.3536,-5.2154 -5.60352,-6.45312 0.40813,-0.14367 0.87894,-0.20028 1.38867,-0.1875 z m 15.93946,3.07226 c -0.55072,-0.0377 -1.06397,0.0455 -1.5,0.2793 -0.32001,1.32846 -0.16209,1.89178 0.37304,2.875 3.87968,7.13857 9.55173,1.30948 4.00977,-2.11328 -0.94285,-0.58263 -1.96496,-0.97822 -2.88281,-1.04102 z m -33.23633,0.58985 c -0.82812,0.0295 -1.63304,0.22275 -2.37696,0.62109 -3.09296,1.65636 -2.25947,6.31264 -0.57421,8.66016 2.41207,3.35875 8.23527,5.01554 11.90429,2.70703 2.46698,-1.55235 1.60626,-4.43803 0.31836,-6.52149 -1.63696,-2.64852 -5.68298,-5.59455 -9.27148,-5.46679 z M 298.07617,151 c 2.9412,0.231 4.0155,2.86796 3.01172,2.94531 -1.63953,-0.17909 -2.65224,-1.89961 -3.01172,-2.94531 z m -47.39648,0.8457 c -2.47026,0.12504 -3.82923,3.66983 1.27539,5.78711 0.96642,0.40109 2.06705,0.58294 2.69531,-0.0605 0.4862,-1.38441 0.28349,-2.14758 -0.41601,-3.32227 -1.0795,-1.81165 -2.43185,-2.46113 -3.55469,-2.4043 z m 14.95898,0.1875 c 3.88584,0.24392 8.78925,4.71867 6.7168,7.67383 -6.23916,2.5266 -10.40715,-0.73904 -9.9668,-6.29492 0.77315,-1.07175 1.95472,-1.46021 3.25,-1.37891 z m -15.03515,1.24414 c 0.48733,-0.0253 1.11959,0.20593 1.5332,0.47071 1.44888,0.92755 2.0625,3.10259 0.68164,2.78515 -1.28335,-0.29501 -3.40678,-1.64781 -2.85742,-2.88476 0.11051,-0.24883 0.35018,-0.35592 0.64258,-0.3711 z"
       id="path1356"
       inkscape:connector-curvature="0" />
    <path
       style="display:inline;fill:#090909;stroke:none;stroke-width:0.99929667"
       d="m 243.41353,101.53611 c -6.5082,0.63682 -16.38223,2.47543 -23.76268,5.13415 -3.44157,1.34982 -7.71325,4.33947 -5.15582,3.78038 31.73847,-11.021342 48.67259,-8.8322 63.5577,0.85014 6.79528,4.8251 11.42478,8.74652 14.97657,15.83984 5.50226,11.64632 14.67111,26.0039 14.97461,39.00977 -5.00085,-4.27895 -15.42118,-8.5211 -16.97266,1 -5.16059,-2.75861 -10.15911,-2.60124 -12.97852,3 -4.02843,-2.30651 -8.33009,-4.8173 -12.97851,-5.60547 -2.32322,-0.39409 -2.95896,1.26292 -5.24024,0.75781 -2.93921,-0.65114 -6.76421,-4.06065 -9.73437,-4.67578 -8.32443,-1.72738 -9.04256,6.81218 -7.98828,12.52344 -7.28413,1.15426 -8.05842,8.5185 -8.11133,14.87891 -3.91662,-5.47422 -2.14342,-8.22729 -10.73242,-2.375 -0.021,-1.77839 -0.88992,-5.53913 -1.72656,-7.1875 -7.50976,-7.30262 -6.89325,2.47579 -8.38282,5.6875 -3.3745,-2.97966 -13.48819,-8.98432 -14.66627,-13.37929 l -0.84085,4.12859 16.50712,14.2507 c 1.37077,-3.58879 2.43505,-7.19712 2.99414,-11.00196 3.7429,3.89586 3.17182,7.91183 2.9961,13.00196 l 8.98437,-6 c 1.12616,4.74605 2.52056,8.67543 6.98828,11.00195 0,-4.65403 -0.21349,-9.43637 0.97657,-13.98437 0.41233,-1.57234 1.02339,-3.71701 2.99218,-3.83204 1.74815,-0.10203 3.7137,1.8893 5.01758,2.8125 -0.012,-4.23494 -3.46011,-17.24325 4.01172,-16.70312 4.09632,0.29606 6.98479,2.67859 11.21289,5.32617 7.7374,-4.62602 17.36451,5.50154 18.71875,7.37695 2.22936,-8.24983 6.80453,-11.36257 12.98047,-4.00195 1.66828,-2.19149 1.66382,-5.55852 3.59766,-7.46094 3.38848,-3.33474 9.49126,2.0174 15.12109,4.46094 -0.0389,-14.27716 -12.67617,-37.64197 -17.9082,-47.00977 -4.71556,-6.87359 -11.80315,-13.17051 -17.78321,-16.30468 -10.72301,-4.70771 -21.14786,-6.947347 -31.64506,-5.29983 z"
       id="path891"
       inkscape:connector-curvature="0"
       sodipodi:nodetypes="ccccccccccccccccccccccccccccccccccc" />
  </g>
  <g
     inkscape:groupmode="layer"
     id="layer1"
     inkscape:label="Tułów"
     style="display:inline">
    <path
       style="fill:#090909;stroke:none;stroke-width:0.99929667"
       d="m 196.87891,173.05273 -0.006,-0.004 0.006,0.0156 c 2.8e-4,-0.004 -2.9e-4,-0.008 0,-0.0117 z"
       id="path981"
       inkscape:connector-curvature="0"
       sodipodi:nodetypes="ccccc" />
    <path
       style="fill:#9ba0ab;fill-opacity:1;stroke:none;stroke-width:1px;stroke-linecap:butt;stroke-linejoin:miter;stroke-opacity:1"
       d="m 135.76367,129.32617 c -34.95008,1.8733 -55.196051,24.40933 -86.376951,34.41797 -20.381352,21.95525 -36.59709,21.64094 -41.9003909,27.82813 8.3968929,1.14905 16.3682889,4.79785 10.6230469,18.49804 0,0 19.930823,4.72687 1.662109,19.98828 0.05875,9.93063 14.979861,-4.26725 25.457032,10.66993 17.127495,-13.76984 28.770304,-5.18613 23.796875,11.88086 3.569807,1.05741 4.550289,1.43631 2.707031,9.75781 5.662575,-0.26298 15.544648,-1.10798 19.210937,8.83984 11.009861,-0.62145 17.085901,-22.99888 25.021481,-2.15039 8.53211,2.86538 11.19946,4.97714 12.79883,8.21094 17.75261,5.1082 19.9071,-3.06321 28.27539,0.70117 4.28339,-2.18298 7.43015,-1.35414 11.41406,-0.58008 9.64166,-4.71423 10.06291,-22.57177 13.0879,-40.97656 8.89194,-18.27524 17.21417,-31.39701 16.19336,-62.44141 -17.44159,-46.09423 -43.95493,-44.36942 -61.97071,-44.64453 z M 31.455078,191.1543 c 0.494394,2.79361 -2.667675,3.59808 -4.992187,3.00195 z m 10.275391,18.51367 c 0.833142,-0.0116 1.737074,0.14961 2.703125,0.49219 l -7.986328,4 c 0.92901,-2.87314 2.783776,-4.4575 5.283203,-4.49219 z m 35.421875,11.28515 c 1.586539,0.0502 2.364431,2.23629 2.099609,2.39649 -3.30711,2.00043 -4.305399,0.0627 -4.742187,-0.75 1.033472,-1.25028 1.921423,-1.66932 2.642578,-1.64649 z m 10.414062,15.09376 c 0.506986,0.01 1.110685,0.36373 1.794922,1.36914 1.871949,2.75061 0.935547,5.4375 0.935547,5.4375 0,0 -0.748513,3.87562 -3.431641,1.0625 -2.683127,-2.81313 -1.060547,-6.25 -1.060546,-6.25 -10e-7,0 0.64635,-1.64033 1.761718,-1.61914 z m 33.746094,5.81445 a 1.2354236,1.4145265 0 0 1 1.23438,1.41406 1.2354236,1.4145265 0 0 1 -1.23438,1.41406 1.2354236,1.4145265 0 0 1 -1.23633,-1.41406 1.2354236,1.4145265 0 0 1 1.23633,-1.41406 z m 13.71484,7.59179 c 0.16234,-0.009 0.32816,-0.006 0.4961,0.008 2.9557,0.24452 6.69587,3.85612 8.29101,5.92773 2.38261,3.09428 3.08817,11.31537 -2.82422,8.48633 -5.91238,-2.82906 -10.23648,-9.81415 -8.73632,-12.20117 0.65149,-1.52297 1.63707,-2.15968 2.77343,-2.22071 z"
       id="path1193"
       inkscape:connector-curvature="0" />
    <path
       style="display:inline;fill:#090909;stroke:none;stroke-width:0.99929667"
       d="m 31.519531,188.58008 c -0.368221,0.0144 -0.728282,0.0577 -1.066406,0.12695 -2.603558,0.53412 -5.539453,1.99755 -6.697266,4.53711 -1.345607,2.95065 0.85951,4.9065 3.75,4.35938 2.561026,-0.48511 6.565327,-2.3006 7.857422,-4.70313 1.690894,-3.1437 -1.266198,-4.42129 -3.84375,-4.32031 z m -0.06445,2.57422 c 0.494394,2.79361 -2.667675,3.59808 -4.992187,3.00195 z m 9.900391,15.34961 c -1.136032,-0.0185 -2.177219,0.12237 -2.869141,0.39843 -4.887735,1.94944 -7.467397,12.18617 -0.03711,10.13672 2.204507,-0.60813 7.74731,-3.23229 8.804687,-5.38476 1.77049,-3.60305 -2.490344,-5.09483 -5.898436,-5.15039 z m 0.375,3.16406 c 0.833142,-0.0116 1.737074,0.14961 2.703125,0.49219 l -7.986328,4 c 0.92901,-2.87314 2.783776,-4.4575 5.283203,-4.49219 z m 34.853515,8.66406 c -0.938987,0.003 -1.892504,0.26281 -2.763672,0.85938 -5.449218,3.73082 1.509533,9.88874 6.236329,6.78906 4.389365,-2.87771 0.596288,-7.66221 -3.472657,-7.64844 z m 0.56836,2.62109 c 1.586539,0.0502 2.364431,2.23629 2.099609,2.39649 -3.30711,2.00043 -4.305399,0.0627 -4.742187,-0.75 1.033472,-1.25028 1.921423,-1.66932 2.642578,-1.64649 z m 10.6875,12.32813 c -0.156741,-0.0105 -0.315113,-0.009 -0.476563,0.002 -0.738055,0.0518 -1.523468,0.33756 -2.341797,0.91407 -5.426856,3.82384 -1.073785,17.58253 5.763672,12.9375 4.436354,-3.01495 1.913653,-13.52897 -2.945312,-13.85352 z m -0.273438,2.76563 c 0.506986,0.01 1.110685,0.36373 1.794922,1.36914 1.871949,2.75061 0.935547,5.4375 0.935547,5.4375 0,0 -0.748513,3.87562 -3.431641,1.0625 -2.683127,-2.81313 -1.060548,-6.25 -1.060546,-6.25 -1e-6,0 0.64635,-1.64034 1.761718,-1.61914 z m 33.572261,3.35937 c -0.7194,0.001 -1.47818,0.24274 -2.22265,0.80273 -3.75987,2.82963 1.09416,9.59852 4.78515,6.30079 2.91537,-2.60627 0.55491,-7.10838 -2.5625,-7.10352 z m 0.17383,2.45508 a 1.2354236,1.4145265 0 0 1 1.23438,1.41406 1.2354236,1.4145265 0 0 1 -1.23438,1.41406 1.2354236,1.4145265 0 0 1 -1.23633,-1.41406 1.2354236,1.4145265 0 0 1 1.23633,-1.41406 z m 14.49219,4.75195 c -1.76149,-0.0147 -3.5306,0.46452 -5.19336,1.58399 -2.74852,1.8494 -2.07053,5.38046 -0.89844,7.95703 2.16947,4.76606 9.73526,15.1852 15.99805,10.98828 8.89466,-5.95989 -0.39421,-20.44991 -9.90625,-20.5293 z m -0.77735,2.83984 c 0.16234,-0.009 0.32816,-0.006 0.4961,0.008 2.9557,0.24452 6.69587,3.85612 8.29101,5.92773 2.38261,3.09428 3.08817,11.31537 -2.82422,8.48633 -5.91238,-2.82906 -10.23648,-9.81415 -8.73632,-12.20117 0.65149,-1.52297 1.63707,-2.15967 2.77343,-2.22071 z"
       id="path1206"
       inkscape:connector-curvature="0" />
    <path
       style="display:inline;fill:#090909;stroke:none;stroke-width:0.99929667"
       d="m 196.79881,174.31248 c -0.3959,4.52223 -0.44608,9.00009 -0.70117,12.8418 -0.53313,7.80873 -2.22933,15.47518 -4.29297,23.00586 -2.70759,9.88118 -9.15549,18.63667 -11.78321,28.50586 -3.34466,12.5685 -1.68778,23.48848 -7.17578,33.49804 -1.02894,1.87671 -4.43248,4.54559 -4.56836,4.50586 -0.81365,-0.2379 -2.42716,-0.43487 -3.17968,-0.63672 -1.82358,-0.4892 -5.60261,0.0756 -6.24805,0.3086 -0.21138,0.0763 -1.19033,0.47386 -1.80469,0.41601 -0.74391,-0.07 -2.16011,-0.54805 -2.66601,-0.66211 -2.60023,-0.58642 -4.83976,0.19068 -7.94727,1.08399 -2.03428,0.58478 -4.09071,1.09846 -6.30078,0.78711 -3.26667,-0.46021 -7.38901,-1.7941 -10.11719,-1.66016 -0.71848,-4.13375 -9.86143,-7.75976 -13.32226,-7.75976 -0.0789,-1.69138 -0.45115,-3.75319 -0.94532,-5.39454 -1.30487,-4.33695 -5.74509,-7.42066 -10.12695,-4.95312 -5.661786,3.18768 -7.409984,9.33631 -14.261718,10.97266 -2.101176,-8.77493 -9.646151,-9.00096 -17.345703,-9.00196 -0.02566,-2.17513 1.202508,-6.36244 -1.203125,-8.00586 -0.89273,-0.37968 -0.893794,-0.4485 -1.746094,-0.83008 0.328087,-1.16548 0.520116,-1.81635 0.753906,-2.60351 0.993681,-4.72505 0.545382,-8.09011 -2.671875,-12.45508 -5.743839,-7.79473 -19.29509,-4.468 -23.71289,2.89063 -7.363999,-12.15919 -21.460015,-3.14834 -24.023438,-8.18946 8.452725,-5.8938 11.893347,-19.10481 -0.935547,-21.8164 3.754083,-8.87797 0.340455,-17.43974 -9.982422,-18.00586 6.979825,-4.9351 15.695678,-6.48015 22.960938,-10.99414 5.507025,-3.42177 9.716833,-8.62522 14.976562,-12.37305 5.523898,-3.93688 11.916862,-6.25435 17.88086,-8.93164 21.663161,-9.7248 36.289046,-25.15204 65.029296,-28.20899 4.36866,-0.46467 24.39005,-4.522 3.70117,-3.89257 -18.01737,0.54815 -34.03078,5.86249 -51.048826,18.34765 -12.046679,8.83796 -25.804088,11.36966 -37.558593,19.04102 -6.489453,4.23522 -11.599354,10.33717 -17.970703,14.74804 -7.268005,5.03166 -19.9582477,5.31786 -22.9628911,13.26563 4.2287385,1.80239 11.9235061,2.5518 13.0468751,8.04102 0.744387,3.6378 -2.225421,8.41611 -3.064453,11.96289 1.984765,0.048 4.075128,-0.039 5.951172,0.74218 9.919833,4.13392 2.223608,13.53211 -3.953125,16.26172 2.42375,9.91019 10.645002,4.98217 17.927734,6.14844 4.357998,0.69815 5.128543,6.38732 9.132812,6.81641 4.158724,0.4451 7.97256,-5.11133 11.875,-6.3086 5.361962,-1.64636 11.713682,1.41104 12.3125,7.36133 0.392961,3.9049 -1.543303,8.18945 -2.328124,11.98828 0,0 3.017244,-1.55459 3.99414,-0.625 2.334979,2.22189 -0.418348,6.12915 -1,9.62696 9.673236,-0.20005 19.258008,-2.00493 19.96875,11.00195 4.345718,-1.59436 8.451167,-3.94678 11.810552,-7.1875 1.92386,-1.85641 4.11529,-5.7588 7.15234,-5.75781 4.15423,0 5.32818,5.87963 5.99609,8.94531 6.68311,-0.31506 10.79471,1.98367 13.97657,8 0.59107,-0.91264 7.86037,0.84526 11.4707,1.1914 0.3946,0.0379 3.82297,0.028 5.66211,-0.41992 1.84534,-0.44947 3.46151,-1.49676 5.30469,-1.77148 1.05726,-0.15758 2.07299,-0.1265 3.20507,0.084 1.38762,0.25774 2.66873,0.87916 3.06055,1.04102 1.55377,-0.49559 2.82743,-1.27237 4.3418,-1.47071 1.34063,-0.17556 2.70852,0.0641 4.04492,0.26954 1.01507,0.15608 3.38457,0.95791 3.27734,0.75976 1.30523,-1.05743 2.72498,-2.14799 3.96875,-3.20703 5.34524,-4.68754 7.53367,-25.07731 8.75196,-32.85937 3.01908,-13.12591 7.44293,-16.61693 12.0664,-29.88086 3.98151,-11.42155 5.3418,-22.64154 5.3418,-34.61719 0.14062,-5.65625 -1.99414,-3.98049 -1.99414,-3.98049 z"
       id="path979"
       inkscape:connector-curvature="0"
       sodipodi:nodetypes="ccccccccccccccccccccccccccccsssssccccccccccccccccccccccccccccccc" />
  </g>
  <g
     inkscape:groupmode="layer"
     id="layer8"
     inkscape:label="Szyja"
     style="display:inline">
    <path
       style="display:inline;fill:#9ba0ab;fill-opacity:1;stroke:none;stroke-width:1px;stroke-linecap:butt;stroke-linejoin:miter;stroke-opacity:1"
       d="m 136.45343,128.21447 c 17.03819,-0.77519 15.05337,-0.73934 34.83799,-5.39916 8.43307,-3.3886 21.3792,-50.097323 10.13337,-59.745832 -21.83075,-17.018104 -21.14189,-25.01644 -7.0986,-38.528127 2.52578,-9.456905 -2.9298,-17.636407 13.6435,-22.0268508 25.08677,-7.9275085 49.29607,34.3385018 34.27236,51.1382308 -7.16215,10.109789 -8.12539,23.431354 -7.06429,35.214953 8.02098,46.788446 -9.22913,58.336346 -17.44338,85.103016 -14.10883,33.09509 -83.73076,-41.99749 -61.28095,-45.75623 z"
       id="path1246"
       inkscape:connector-curvature="0"
       sodipodi:nodetypes="ccccccccc" />
    <path
       style="display:inline;fill:#090909;stroke:none;stroke-width:0.99929667"
       d="m 194.86328,0.46484375 c -7.74555,-0.001368 -15.76615,2.11916555 -19.03906,6.75781245 -3.28166,4.6518988 0.0676,10.8445208 -2.62695,15.6093748 -3.22275,5.700361 -8.75577,8.206196 -9.9668,15.289063 -1.51753,8.881264 4.71138,16.224824 10.99414,21.566406 2.9472,2.505654 6.86403,4.752749 8.39453,8.480469 3.81678,9.294057 1.05637,20.626531 -0.80859,29.966797 -1.47568,8.997614 -7.05038,22.870284 -14.28516,24.816404 -5.99665,1.41849 -20.79027,3.16804 -26.82227,3.70899 -7.83606,0.70274 -11.278,4.01858 -0.87304,2.98828 17.36266,-1.62559 22.27797,-2.5342 29.99414,-4.70313 8.84259,-2.48555 14.15403,-21.51511 16.625,-36.812498 1.19805,-7.41324 1.71737,-17.243304 -2.33203,-23.96289 -4.91199,-8.152104 -20.08282,-13.1679 -18.39258,-25.048828 0.83564,-5.870599 6.50664,-8.992699 8.83984,-14.041016 2.40408,-5.201752 0.22557,-10.874122 4.16016,-15.8593749 3.1606,-4.0047329 9.45853,-6.0959086 15.66016,-6.21875 12.2122,-0.2418984 17.72477,6.9515205 21.92807,13.5800779 17.81781,28.098483 6.75076,27.464268 0.10513,43.544922 -8.24048,18.594614 2.32983,40.672937 -0.56445,61.013667 -1.5974,11.22553 -4.89552,20.85772 -9.85743,31.00196 -2.61474,5.34517 -8.32857,15.42303 -9.11328,21.55273 -1.48872,11.62911 1.85007,13.29334 1.97272,3.40278 0.0542,-4.37098 2.82359,-10.80155 3.90033,-12.94965 2.82761,-5.64107 5.57493,-11.44298 7.89062,-17.31641 5.54038,-14.05242 8.76746,-28.11039 7.73633,-42.18164 -1.03113,-14.071243 -5.42142,-28.080728 1.61914,-43.523437 6.61645,-14.51246 18.84009,-22.76001 -0.28872,-45.292969 -4.51409,-5.317413 -9.25406,-15.27332172 -24.84995,-15.36914025 z"
       id="path983"
       inkscape:connector-curvature="0"
       sodipodi:nodetypes="ccccccccscscccccsscccsssssssc" />
  </g>
  <g
     inkscape:groupmode="layer"
     id="layer4"
     inkscape:label="Skrzydło_prawe"
     style="display:inline">
    <path
       style="fill:#9ba0ab;fill-opacity:1;stroke:none;stroke-width:1px;stroke-linecap:butt;stroke-linejoin:miter;stroke-opacity:1"
       d="M 66.382812,51.242188 C 47.782435,51.443406 31.848384,57.717755 28.105469,59.890625 -6.6360707,82.664354 4.0142464,134.58433 3.1757812,152.5918 5.7379969,140.61744 23.224945,130.54733 25.994141,149.41602 c 1.438534,-5.07092 12.541676,-9.45497 15.169921,4.82812 4.772453,-4.35014 11.150077,-17.23944 22.953126,-5.99023 8.719994,-5.65473 16.972792,-15.61414 22.455078,12.30078 1.230595,-4.70855 11.161959,3.36368 12.220703,16.09375 7.715031,-11.72999 10.255871,-4.6579 14.337891,-4.08203 -0.42235,-7.65791 1.09712,-19.46434 8.23828,-2.77149 43.57666,6.43962 52.39039,-24.32585 42.83984,-45.24023 C 149.23477,92.387681 124.07655,61.40692 79.568359,52.197266 75.109179,51.471789 70.675207,51.195752 66.382812,51.242188 Z M 46.160156,103.86328 c 1.004716,-0.0144 2.14179,0.42284 3.34375,1.52539 0.854208,0.78318 1.596227,2.25356 1.169922,4.49805 -1.233091,1.48234 -3.364964,1.8209 -4.767578,1.96094 -5.980329,0.59895 -4.099864,-7.92219 0.253906,-7.98438 z m -19.130859,2.47461 c 1.08807,0.0527 1.369141,1.42383 1.369141,1.42383 -0.124798,0.75017 -1.435526,1.75001 -2.621094,1.6875 0,0 -2.371339,-1.12468 -0.125,-2.625 0.561585,-0.37508 1.014263,-0.50391 1.376953,-0.48633 z m 1.679687,12.42773 c 1.142738,-0.0281 2.307375,0.0417 3.494141,0.18555 2.232262,7.01455 -11.019413,13.66573 -13.103516,3.43945 2.959178,-2.56556 6.181162,-3.54067 9.609375,-3.625 z m -17.783203,5.5625 c 1.435161,0.3751 0.748496,6.12548 -1.3730466,4 -2.7783018,-2.78345 1.3730466,-3.99999 1.3730466,-4 z m 40.400391,0.73047 c 4.784763,-0.30606 8.983053,6.26443 1.855469,9.98047 -1.064066,0.55412 -2.393592,0.99528 -3.558594,0.98828 -1.821631,-0.012 -3.444944,-1.15063 -4.128906,-2.63476 -0.595927,-1.29309 -0.186891,-2.68308 0.589843,-4.23242 1.408708,-2.80863 3.369889,-3.9818 5.242188,-4.10157 z m 19.126953,3.70703 c 1.000441,-5.1e-4 1.811488,0.75629 1.810547,1.68946 -2.21e-4,0.9324 -0.810927,1.68801 -1.810547,1.6875 -0.998857,-4.9e-4 -1.808373,-0.75581 -1.808594,-1.6875 -9.4e-4,-0.93246 0.808916,-1.68897 1.808594,-1.68946 z"
       id="path1273"
       inkscape:connector-curvature="0"
       sodipodi:nodetypes="scccccccccccsccccccccsccccccccccccccccccc" />
    <path
       style="display:inline;fill:#090909;stroke:none;stroke-width:0.99929667"
       d="m 46.232422,101.00977 c -0.187613,-0.009 -0.374651,-0.009 -0.5625,0.002 -0.400746,0.0227 -0.799851,0.09 -1.195313,0.20898 -4.045508,1.21727 -7.320502,8.81098 -3.43164,11.88868 2.108065,1.66836 6.036972,0.98778 8.363281,0.2246 8.131152,-2.66615 2.642181,-12.04969 -3.173828,-12.32421 z m -0.07227,2.85351 c 1.004716,-0.0144 2.14179,0.42284 3.34375,1.52539 0.854208,0.78318 1.596227,2.25356 1.169922,4.49805 -1.233091,1.48234 -3.364964,1.8209 -4.767578,1.96094 -5.980329,0.59895 -4.099864,-7.92219 0.253906,-7.98438 z m -19.8125,0.55469 c -1.551503,0.0222 -3.011636,0.82741 -3.392578,2.8418 -0.294819,1.55934 0.06087,2.73262 1.011719,4.18945 1.529407,0.46909 2.279127,0.23938 3.480469,-0.34375 6.175167,-2.99542 2.313697,-6.73639 -1.09961,-6.6875 z m 0.681641,1.91992 c 1.08807,0.0527 1.369141,1.42383 1.369141,1.42383 -0.124798,0.75017 -1.435526,1.75001 -2.621094,1.6875 0,0 -2.371339,-1.12468 -0.125,-2.625 0.561585,-0.37508 1.014263,-0.50391 1.376953,-0.48633 z m 2.830078,9.55273 c -0.466825,0.006 -0.936921,0.0654 -1.400391,0.18555 -2.851853,0.74016 -9.276058,1.82729 -10.953125,4.38086 -4.404921,6.70648 4.672888,10.60366 9.955079,9.11133 3.346046,-0.94621 7.284773,-3.80193 8.017578,-7.42774 0.739133,-3.65654 -2.351369,-6.29213 -5.619141,-6.25 z m -1.150391,2.875 c 1.142738,-0.0281 2.307375,0.0417 3.494141,0.18555 2.232262,7.01455 -11.019413,13.66573 -13.103516,3.43945 2.959178,-2.56556 6.181162,-3.54067 9.609375,-3.625 z m 23.066407,3.19141 c -1.317991,0.007 -2.747321,0.37575 -4.238282,1.21094 -10.286037,5.76128 -3.242658,20.78628 7.820313,13.88476 7.391101,-4.60959 3.535115,-15.13109 -3.582031,-15.0957 z m -41.111329,0.22656 c -0.7268862,-0.006 -1.548875,0.28743 -2.429687,0.98829 -3.2045277,2.55056 -0.4055648,10.59532 3.695313,7.30859 3.259151,-2.61195 1.88422,-8.27137 -1.265626,-8.29688 z m 0.261719,2.14453 c 1.435161,0.3751 0.748496,6.12548 -1.3730466,4 -2.7783018,-2.78345 1.3730466,-3.99999 1.3730466,-4 z m 40.400391,0.73047 c 4.784763,-0.30606 8.983053,6.26443 1.855469,9.98047 -1.064066,0.55412 -2.393592,0.99528 -3.558594,0.98828 -1.821631,-0.012 -3.444944,-1.15063 -4.128906,-2.63476 -0.595927,-1.29309 -0.186891,-2.68308 0.589843,-4.23242 1.408708,-2.80863 3.369889,-3.9818 5.242188,-4.10157 z m 19.248047,1.49805 c -0.614524,0.047 -1.271753,0.24462 -1.951172,0.63086 -4.865172,2.7666 -1.435479,9.53842 3.617187,6.75781 4.011601,-2.20805 2.305819,-7.1025 -1.066406,-7.38672 -0.194551,-0.0164 -0.394768,-0.0176 -0.599609,-0.002 z m -0.121094,2.20898 a 1.809551,1.6878735 0 0 1 1.810547,1.68946 1.809551,1.6878735 0 0 1 -1.810547,1.6875 1.809551,1.6878735 0 0 1 -1.808594,-1.6875 1.809551,1.6878735 0 0 1 1.808594,-1.68946 z"
       id="path1299"
       inkscape:connector-curvature="0" />
    <path
       style="display:inline;fill:#090909;stroke:none;stroke-width:0.99929667"
       d="m 165.47541,124.42184 c 0,0 -15.97387,-39.347626 -49.159,-59.542934 -5.63481,-2.84963 -11.08156,-5.736292 -16.78516,-8.253906 -2.085404,-0.920513 -4.488759,-1.90668 -6.363281,-2.5 -5.863343,-1.855855 -11.820374,-3.680396 -15.78711,-3.939453 -12.463588,-0.814181 -24.868924,0.484477 -36.939453,3.568359 -4.781108,1.22157 -10.075475,2.398163 -13.978515,5.572266 -7.809772,6.351104 -15.289916,14.64246 -19.619141,23.804687 -2.4556579,5.19715 -3.0265569,11.409167 -4.1425781,17.003911 -3.8015751,19.05822 -2.47146776,38.83943 -0.1992188,58.01367 3.1100616,-4.37197 3.2490069,-9.82459 7.1777344,-13.89649 1.0993685,-1.13926 2.3813195,-2.29751 3.8085935,-3.01367 8.98346,-4.505 10.959647,6.32774 10.978516,12.9082 2.376428,-2.34552 3.985964,-6.45668 7.078125,-7.91601 6.569494,-3.10068 8.771361,9.95209 9.894531,13.91797 -0.13643,-0.72404 6.470825,-17.67501 16.355469,-14.49805 2.36954,0.9222 4.058547,3.62267 5.607422,5.49609 5.197231,-4.18093 11.338098,-11.53029 15.880859,-6.18945 5.232991,6.15233 5.093602,12.56069 5.085938,20.19336 2.31303,-1.3833 2.958428,-2.48839 3.99414,-5.00195 7.083356,4.01189 8.957292,12.38321 9.982422,20.0039 2.959177,-2.21649 3.875297,-8.32699 8.064457,-8.74609 2.72057,-0.27106 5.57595,2.62385 7.91015,3.74609 0,-4.43898 -0.0332,-8.66495 0.99805,-13.0039 3.22275,2.53556 4.82413,5.07008 5.99023,9.00195 1.51752,-5.01111 -5.03218,-15.59318 -8.78906,-7.85547 -0.97142,2.00044 -0.33708,4.733 -0.19531,6.85547 -4.89402,-2.60258 -9.27289,-2.16914 -11.98047,3 -3.718245,-7.06756 -4.6616,-14.48984 -13.978516,-15.00195 -0.06839,-8.1678 -2.758969,-18.25689 -12.978515,-17.8418 -3.341454,0.13504 -6.771197,4.79936 -9.484375,5.91211 -2.530376,-1.31579 -4.771011,-4.07495 -7.488282,-3.96094 -7.034036,0.29307 -10.148774,4.61872 -14.974609,8.88867 -1.302777,-8.93098 -7.932342,-10.3249 -14.976562,-6.00195 -0.62588,-1.67136 -1.165037,-3.34322 -2.22461,-4.81055 C 18.18864,131.95616 7.495119,140.14337 4.5,145.39453 3.1272372,133.39386 1.5689753,100.69995 10.658203,82.300781 14.728071,74.062259 23.073264,65.982997 30.457031,60.669922 c 6.994901,-5.033214 16.710128,-5.610408 24.958985,-7.15625 38.298402,-6.427724 72.261054,19.486911 84.161354,34.730985 9.04387,11.585029 14.73847,18.427213 22.8995,36.067943 0.0392,0.0846 2.03391,3.81208 3.1213,0.74458"
       id="path876"
       inkscape:connector-curvature="0"
       sodipodi:nodetypes="ccsscccccccccccccscccccccccccccccccccccssc" />
  </g>
  <g
     inkscape:groupmode="layer"
     id="layer6"
     inkscape:label="Zmarszczki"
     style="display:inline">
    <path
       style="display:inline;fill:#090909;stroke:none;stroke-width:0.99929667"
       d="m 187.20134,8.1147406 v 2.0004424 c 5.4611,-6.1e-4 13.34625,0.793176 16.97234,-4.000885 -5.80354,0.5788281 -11.04599,1.9998024 -16.97234,2.0004426 z"
       id="path6139"
       inkscape:connector-curvature="0" />
    <path
       style="display:inline;fill:#090909;stroke:none;stroke-width:0.99929667"
       d="m 182.20948,13.115847 c 1.38366,0.508893 12.78914,1.837298 15.82482,0.988913 3.18691,-0.890646 8.12403,-3.429519 10.93807,-5.1261493 -1.46728,-0.3831407 -2.4243,-0.8290976 -3.12028,-0.96526 -0.25835,0.1101687 -5.81719,3.5329863 -9.30173,3.7902373 -3.44813,0.254563 -12.07188,-0.742829 -11.56729,-0.639918 z"
       id="path6171"
       inkscape:connector-curvature="0"
       sodipodi:nodetypes="csccscc" />
  </g>
  <g
     inkscape:groupmode="layer"
     id="layer7"
     inkscape:label="Dziób"
     style="display:inline">
    <path
       style="fill:#7a7577;fill-opacity:1;stroke:none;stroke-width:1px;stroke-linecap:butt;stroke-linejoin:miter;stroke-opacity:1"
       d="m 220.16159,40.315953 c 0,0 4.10452,1.110014 7.78631,1.47353 19.65281,20.429739 16.04717,-24.810678 -9.35773,-22.910093 -6.51421,1.310845 -19.26026,-1.575117 -20.56728,0.372786 -12.41932,10.836977 -8.39917,17.485135 -16.81391,22.870871 14.95526,20.411016 35.4076,4.931858 38.95261,-1.807094 z"
       id="path986"
       inkscape:connector-curvature="0"
       sodipodi:nodetypes="cccccc" />
    <path
       style="display:inline;fill:#090909;stroke:none;stroke-width:0.99929667"
       d="m 203.49023,17.587891 c -4.42476,-0.869203 -8.16949,2.133318 -10.2832,4.640625 -3.15645,3.110301 -4.91181,7.207842 -6.67393,10.892618 -1.42068,2.80072 -7.2702,7.668161 -6.6582,10.78125 0.77474,3.941572 6.98172,6.954324 10.32227,8.113281 10.54623,3.658045 25.62688,-0.857311 30.94921,-10.894531 1.35732,0.293211 2.29416,0.521776 3.02869,0.787923 19.22105,18.061765 22.65817,-4.791199 11.07288,-17.118001 -8.23331,-10.048462 -17.85368,-5.552161 -31.75772,-7.203165 z m 2.31836,2.136718 c 8.17071,1.500973 17.97733,-0.817064 23.15039,2.402344 4.7852,3.195407 9.51661,10.227065 10.05274,15.994141 0.21665,2.323813 0.41077,8.190933 -3.3711,7.558594 -8.586,-1.435418 -11.74027,-13.716797 -18.48828,-17.560547 1.03931,4.538104 3.08281,7.35015 5.46094,11.294921 -6.13051,-1.078265 -14.39802,-0.404355 -21.43555,0.78711 -3.58117,0.606234 -6.82988,0.854197 -8.98437,3.921875 8.75573,-0.449199 17.01959,-3.001953 25.95703,-3.001953 -9.3927,11.704589 -26.53774,13.756874 -35.94141,1.001953 6.09653,-4.171938 7.60171,-12.05726 10.91602,-16.660156 4.32675,-4.910283 5.91831,-6.380978 12.68359,-5.738282 z"
       id="path926"
       inkscape:connector-curvature="0"
       sodipodi:nodetypes="ccccccccccccccccccccc" />
  </g>
  <g
     inkscape:groupmode="layer"
     id="layer2"
     inkscape:label="Oczy"
     style="display:inline">
    <path
       style="fill:#1e5f80;stroke:none"
       d="m 184.375,13.34375 c -1.20147,1.312723 -1.3583,3.394483 -1.12222,5.128403 0.17572,1.290638 0.81059,2.638563 1.82547,3.455039 1.42201,1.144002 3.49881,1.87481 5.27648,1.461621 1.46944,-0.341548 2.61982,-1.705833 3.38162,-3.007977 1.12086,-1.915873 2.11324,-4.397243 1.4199,-6.505836 -0.17753,-0.539914 -0.74339,-0.941331 -1.28125,-1.125 -3.0026,-1.02534 -7.85091,-1.208036 -9.5,0.59375 z"
       id="path6173"
       inkscape:connector-curvature="0"
       sodipodi:nodetypes="saaaaaas" />
    <path
       style="fill:#1e5f80;stroke:none"
       d="m 205.43555,8.5898438 c -1.75827,0.534662 -3.99698,1.1476542 -4.4043,3.3164062 -0.22042,1.173597 0.29585,3.103604 0.90625,4.53125 0.98483,2.303393 6.34824,1.934223 7.76367,-0.125 0.63495,-0.92375 0.92523,-2.100826 0.9961,-3.408203 C 210.82,10.640023 208.83083,9.0248329 208.34375,8.75 c -0.4815,-0.1665875 -1.97933,-0.4426117 -2.9082,-0.1601562 z"
       id="path6155"
       inkscape:connector-curvature="0"
       sodipodi:nodetypes="assscca" />
    <path
       style="fill:#0da0e9;stroke:none"
       d="m 193.5,14.53125 c -0.68571,-1.0548 -2.175,-1.29395 -3.54,-1.30905 -11.889,-0.1314 -0.737,16.2023 3.317,4.8033 0.458,-1.2876 0.85913,-2.515724 0.223,-3.49425 z"
       id="path6183"
       inkscape:connector-curvature="0"
       sodipodi:nodetypes="acca" />
    <path
       style="fill:#0da0e9;stroke:none"
       d="m 204.559,9.8596 c -0.87375,0.513328 -2.35841,1.225361 -2.38914,2.051945 -0.13243,3.562721 1.90296,7.128028 5.52814,4.751255 4.05,-2.6559 0.98575,-9.25795 -3.139,-6.8032 z"
       id="path6159"
       inkscape:connector-curvature="0"
       sodipodi:nodetypes="cscc" />
  </g>
</svg>
