<?xml version="1.0" encoding="UTF-8" standalone="no"?>
<!-- Created with Inkscape (http://www.inkscape.org/) -->

<svg
   xmlns:dc="http://purl.org/dc/elements/1.1/"
   xmlns:cc="http://creativecommons.org/ns#"
   xmlns:rdf="http://www.w3.org/1999/02/22-rdf-syntax-ns#"
   xmlns:svg="http://www.w3.org/2000/svg"
   xmlns="http://www.w3.org/2000/svg"
   xmlns:sodipodi="http://sodipodi.sourceforge.net/DTD/sodipodi-0.dtd"
   xmlns:inkscape="http://www.inkscape.org/namespaces/inkscape"
   width="200mm"
   height="330mm"
   viewBox="0 0 200 330"
   version="1.1"
   id="svg8"
   inkscape:version="0.92.4 (5da689c313, 2019-01-14)"
   sodipodi:docname="rex.svg">
  <defs
     id="defs2">
    <marker
       inkscape:stockid="EmptyDiamondSstart"
       orient="auto"
       refY="0"
       refX="0"
       id="EmptyDiamondSstart"
       style="overflow:visible"
       inkscape:isstock="true">
      <path
         id="path1613"
         d="M 0,-7.0710768 -7.0710894,0 0,7.0710589 7.0710462,0 Z"
         style="fill:#ffffff;fill-rule:evenodd;stroke:#000000;stroke-width:1.00000003pt;stroke-opacity:1"
         transform="matrix(0.2,0,0,0.2,1.2,0)"
         inkscape:connector-curvature="0" />
    </marker>
    <marker
       inkscape:stockid="Arrow1Send"
       orient="auto"
       refY="0"
       refX="0"
       id="Arrow1Send"
       style="overflow:visible"
       inkscape:isstock="true">
      <path
         id="path1507"
         d="M 0,0 5,-5 -12.5,0 5,5 Z"
         style="fill:#000000;fill-opacity:1;fill-rule:evenodd;stroke:#000000;stroke-width:1.00000003pt;stroke-opacity:1"
         transform="matrix(-0.2,0,0,-0.2,-1.2,0)"
         inkscape:connector-curvature="0" />
    </marker>
    <marker
       inkscape:stockid="Arrow1Lstart"
       orient="auto"
       refY="0"
       refX="0"
       id="Arrow1Lstart"
       style="overflow:visible"
       inkscape:isstock="true">
      <path
         id="path1492"
         d="M 0,0 5,-5 -12.5,0 5,5 Z"
         style="fill:#000000;fill-opacity:1;fill-rule:evenodd;stroke:#000000;stroke-width:1.00000003pt;stroke-opacity:1"
         transform="matrix(0.8,0,0,0.8,10,0)"
         inkscape:connector-curvature="0" />
    </marker>
  </defs>
  <sodipodi:namedview
     id="base"
     pagecolor="#ffffff"
     bordercolor="#666666"
     borderopacity="1.0"
     inkscape:pageopacity="0.0"
     inkscape:pageshadow="2"
     inkscape:zoom="1"
     inkscape:cx="-257.6473"
     inkscape:cy="563.30035"
     inkscape:document-units="mm"
     inkscape:current-layer="layer3"
     showgrid="false"
     inkscape:window-width="3840"
     inkscape:window-height="2004"
     inkscape:window-x="-16"
     inkscape:window-y="-16"
     inkscape:window-maximized="1" />
  <metadata
     id="metadata5">
    <rdf:RDF>
      <cc:Work
         rdf:about="">
        <dc:format>image/svg+xml</dc:format>
        <dc:type
           rdf:resource="http://purl.org/dc/dcmitype/StillImage" />
        <dc:title></dc:title>
      </cc:Work>
    </rdf:RDF>
  </metadata>
  <g
     inkscape:groupmode="layer"
     id="layer2"
     inkscape:label="Tło"
     transform="translate(0,33)">
    <path
       style="fill:#bc750c;fill-opacity:1;stroke:none;stroke-width:0.26458332px;stroke-linecap:butt;stroke-linejoin:miter;stroke-opacity:1"
       d="M 73.623045,52.82582 C 74.308433,40.767226 77.380829,29.407222 80.621618,17.252135 84.851953,7.7892515 96.064391,2.9128972 97.904042,2.5174075 96.701232,-0.56512993 95.918815,-4.5360814 94.545314,-4.1343577 87.479746,1.2940821 80.124978,4.836702 64.899839,6.9676578 49.04764,4.732469 52.100567,-7.5324986 64.869039,-17.215401 c 9.853377,-4.825785 22.164905,-12.091087 30.478794,-13.749626 15.124077,4.437516 18.438077,20.288264 21.326917,32.0702471 1.25541,2.3531738 3.0655,-1.04453734 4.08793,0.6176427 5.81372,14.5949282 8.89371,19.3853842 8.13297,36.3522312 -0.26739,19.113649 -12.37214,37.359917 -32.940197,39.306345 -11.203535,0.637037 -21.514457,-2.808842 -22.088447,-17.481391 0.05566,-2.191168 0.245322,-4.583283 -0.243959,-7.074228 z"
       id="path899"
       inkscape:connector-curvature="0"
       sodipodi:nodetypes="ccccccccccccc"
       inkscape:export-xdpi="96"
       inkscape:export-ydpi="96" />
    <path
       style="fill:#ffffff;fill-opacity:1;stroke:none;stroke-width:0.26458332px;stroke-linecap:butt;stroke-linejoin:miter;stroke-opacity:1"
       d="M 73.790088,52.057423 C 63.894425,49.212618 58.803106,48.437364 44.85428,48.345984 30.524047,62.174876 29.672,76.975212 31.062728,89.68552 c 6.770017,22.73725 11.425276,24.98877 23.15146,35.15242 6.810107,6.30428 17.833113,9.76531 28.474329,11.4124 12.718019,0.006 27.888273,-0.1531 43.418213,-6.87522 17.32233,-6.15288 23.66222,-19.38079 27.72927,-37.538482 2.00045,-8.931189 2.21201,-19.451159 3.48577,-30.924336 -0.61762,-18.370985 -2.33409,-40.445241 -15.6332,-53.1424255 -2.55119,-9.8617035 -1.20038,-22.8379905 -6.40461,-31.2325305 -3.9678,-7.457339 -12.52236,-11.998338 -27.79013,-0.07144 l 7.05472,18.3334909 6.77013,-1.1642885 c 0,0 2.02521,5.0072094 3.33131,9.0149098 -0.78588,1.0173324 -2.48678,-0.6705094 -3.88731,-0.9271554 2.72035,6.6588274 6.19597,16.1879082 8.04895,27.4463492 2.01856,24.568902 -8.54761,37.597497 -19.80261,44.207901 C 98.820739,77.403009 88.995928,80.270264 79.36978,72.217599 75.841769,66.371882 74.282238,60.432025 73.790088,52.057423 Z"
       id="path910"
       inkscape:connector-curvature="0"
       sodipodi:nodetypes="ccccccccccccccccccc"
       inkscape:export-xdpi="96"
       inkscape:export-ydpi="96" />
    <path
       style="fill:#ffffff;fill-opacity:1;stroke:none;stroke-width:0.26458332px;stroke-linecap:butt;stroke-linejoin:miter;stroke-opacity:1"
       d="m 89.9189,32.025897 c 1.002263,0.835204 3.942227,5.846477 -1.904293,11.125027 -0.902036,-0.634767 1.26953,-5.712847 1.26953,-5.712847 0,0 0.20045,-3.574722 0.634763,-5.41218 z"
       id="path922"
       inkscape:connector-curvature="0"
       sodipodi:nodetypes="cccc"
       inkscape:export-xdpi="96"
       inkscape:export-ydpi="96" />
  </g>
  <g
     inkscape:label="Layer 1"
     inkscape:groupmode="layer"
     id="layer1"
     style="display:inline"
     transform="translate(0,33)">
    <path
       style="fill:#000000;stroke-width:0.10583334"
       d="m 78.651945,36.145423 c 0.576828,1.175224 3.146552,-0.0273 3.931658,-0.611927 -0.283975,0.985554 -0.497586,2.078028 -0.511096,4.034009 0.01217,2.233485 0.31273,4.632243 2.564702,5.432717 2.283698,0.30497 5.751774,-2.829502 6.671428,-4.565073 1.794087,-3.516669 1.473584,-7.403398 -0.747241,-9.061409 -0.286261,-0.176877 -0.575019,-0.340847 -0.866098,-0.488857 0.678014,-0.480047 2.156429,-1.512101 2.727608,-2.539836 1.118643,-4.706977 -4.11249,0.745678 -7.426608,2.888893 -2.245749,1.452324 -7.316186,2.931475 -6.344353,4.911483 z M 90.18519,33.013941 c 0.294587,0.25806 0.455639,0.737477 0.568442,1.057294 0.228981,0.658147 0.272399,0.963794 0.265099,1.866541 -0.01244,1.536031 -0.450617,3.026262 -1.238684,4.211086 -0.392832,0.590614 -1.492525,1.814788 -1.331701,1.482591 0.812205,-1.078874 1.35463,-2.396718 1.530138,-3.439562 0.237401,-1.448251 0.297342,-2.630815 0.204124,-4.045726 -0.05895,-0.894844 -0.07201,-1.141714 0.0026,-1.132224 z"
       id="path73"
       inkscape:connector-curvature="0"
       sodipodi:nodetypes="scccccccsscccccccc"
       inkscape:export-xdpi="96"
       inkscape:export-ydpi="96" />
    <path
       style="fill:#000000;stroke-width:0.10583334"
       d="m 123.6405,-32.387721 c -2.06584,-0.0076 -4.12693,0.340241 -6.00842,1.086757 -1.97073,0.80495 -3.74968,2.297682 -5.4963,3.22254 -2.48341,1.445856 -3.04087,1.507141 -4.87567,3.241146 -3.60899,-4.976579 -10.922434,-7.149451 -14.806324,-6.526733 -2.871174,0.625541 -6.329048,1.748618 -7.960754,2.936255 -2.947628,2.447571 -6.632842,3.645596 -9.709486,5.467885 -3.95977,2.176782 -7.87767,3.56716 -11.591539,6.308659 -2.69045,1.94892 -5.857009,3.801485 -7.380427,6.6962307 -1.53451,3.6350417 -2.582246,6.7859629 -1.660882,10.20608906 0.258233,0.94276334 1.159523,2.87506414 1.887741,4.04781354 2.200396,2.6725305 5.788813,3.2219532 8.45168,3.2282242 2.451259,0.0011 4.268817,-0.1951007 8.572603,-0.9239744 4.662985,-0.7897077 4.897567,-0.8379034 7.037814,-1.4490061 4.10107,-1.0827434 6.198253,-2.2578738 9.284702,-4.28707557 2.033384,-1.32800929 3.456895,-2.58602833 4.81728,-4.28862343 0.742672,1.6966181 1.955331,3.56674276 2.408121,5.3640848 -8.018643,2.3944255 -11.924115,8.2581332 -15.466314,12.9302522 -2.910425,4.426783 -3.412792,8.421084 -4.764492,13.264969 -0.973381,3.253868 -2.378808,9.088215 -2.88303,11.96768 -0.515649,4.008086 -0.379444,6.708151 -0.538985,10.68095 -0.01297,0 -1.753868,-0.636837 -2.657719,-0.861007 -2.462022,-0.610617 -3.887747,-0.947574 -7.496341,-1.309401 -6.631744,-0.543647 -11.531341,-0.782467 -16.862907,-0.822167 -2.355913,-0.0178 -4.211476,0.629767 -6.341731,1.636071 -4.191836,1.737521 -5.878436,6.650931 -7.031612,10.165213 -1.163309,3.454499 -1.845053,7.206868 -2.516642,10.862317 -0.478946,2.606915 -0.736698,6.128437 -0.839666,8.209275 -0.138443,2.797765 0.569933,10.152133 1.527479,14.020249 0.337066,1.361624 1.495952,4.704223 2.509409,7.238801 0.928526,2.322197 3.427468,8.373437 6.220291,11.853537 6.322176,7.87797 14.236953,14.79975 23.14767,19.557 5.986677,3.19617 12.820912,4.90684 19.570642,5.61177 9.668742,1.00979 19.531379,-0.30275 29.090229,-2.07267 5.75909,-1.06636 11.46027,-2.72884 16.81168,-5.10931 2.41649,-1.07493 4.68404,-2.50246 6.797,-4.09329 2.64046,-1.98799 5.41592,-3.70499 7.59824,-6.1147 2.86659,-3.16527 5.43791,-6.75355 7.00665,-10.72538 6.05499,-15.330401 8.27507,-33.877746 8.54326,-48.704822 0.11488,-6.733701 -0.4734,-16.370347 -1.1684,-20.170226 -0.39986,-2.429675 -1.27292,-9.222509 -1.94975,-11.417331 -1.33789,-4.33846 -1.46984,-5.5396 -2.75849,-8.075475 -2.58213,-5.081238 -1.00632,-3.888367 -9.8118,-14.0037959 -0.009,-1.9345818 -0.66259,-4.8135403 -0.87851,-6.61457896 -0.42686,-5.28397794 -0.78404,-8.05483844 -1.69601,-13.01212014 -0.91219,-6.985312 -5.59948,-15.507391 -10.09293,-18.175634 -1.90093,-0.675817 -3.97152,-1.038849 -6.03736,-1.046448 z m 0.25063,1.930117 c 1.54955,-0.01601 3.12099,0.206488 4.77026,0.882115 4.87077,3.401163 7.92946,12.414914 8.68939,16.837215 1.07046,5.6984201 1.40253,7.8566459 1.99729,12.90256376 0.26538,2.24328474 1.41247,8.44583114 1.05885,9.57408854 0.24564,2.6884567 1.93542,0.6169657 1.55029,-0.7441407 5.50639,5.1426634 6.84792,8.0275454 8.92866,12.7935354 2.42126,5.545994 2.96713,11.754425 3.85454,17.740462 0.93149,6.283334 1.63858,14.035579 1.43617,21.07345 -0.35017,12.175421 -1.49062,24.470472 -4.57571,36.253753 -1.61877,6.182832 -2.72226,10.921862 -7.22913,17.758712 -4.5867,6.95797 -12.11205,11.65761 -19.70427,14.78702 -13.18171,5.43331 -28.136733,6.80049 -42.365212,5.89012 -5.970728,-0.38202 -11.832174,-1.9177 -17.317855,-4.71717 -10.52727,-5.37231 -19.020657,-12.16951 -26.30719,-23.77179 0.380926,0.32414 0.751647,0.61378 1.107943,0.95653 0.27699,0.30877 1.230561,0.95379 1.939933,1.31258 0.73224,0.37037 1.36098,0.43694 2.632914,0.27854 3.070331,-0.38238 4.454512,-1.57756 5.099947,-4.40438 0.638,-2.89679 0.335203,-5.226047 4.410583,-3.92328 1.653349,0.56152 2.148014,0.87351 2.923852,1.84278 0.955561,1.19381 2.386496,2.57243 3.025656,2.91559 0.898398,0.45939 2.386504,0.35116 3.403928,-0.46406 0.177138,0.8311 0.480263,3.74821 1.077452,2.14974 0.135665,-0.34521 0.547386,-2.6687 0.149344,-4.1429 -0.522235,-1.93429 0.02236,-4.227404 -0.528648,-6.312772 -0.533284,-0.521447 -1.152081,0.534547 -1.17874,1.062984 -0.08818,1.748061 -0.135821,2.792638 -0.0186,4.181638 0.03677,0.43573 0.252309,1.24873 0.225308,1.29243 -0.09432,0.15261 -0.996005,0.73007 -1.312066,0.84026 -0.684961,0.23878 -1.822937,-0.63703 -3.530531,-2.71611 -0.973108,-1.18479 -1.65794,-1.61269 -3.648874,-2.281514 -1.600909,-0.535557 -3.822187,-1.116494 -5.420857,0.843354 -0.470837,0.70022 -0.740117,1.54054 -1.104842,3.44889 -0.569669,2.9806 -1.277842,3.69902 -3.941363,3.99665 -0.704498,0.0787 -1.176274,0.21646 -1.771983,-0.23203 -0.879071,-0.46969 -3.457557,-2.66885 -4.123264,-3.51658 -0.289809,-0.36905 -0.953948,-0.76326 -0.953948,-0.76326 -1.386459,-2.2885 -1.899515,-3.169127 -3.53415,-7.718883 -0.962628,-2.679325 -1.08276,-3.151332 -1.65158,-6.499824 -0.751856,-4.425993 -0.950182,-8.434042 -0.837599,-10.38793 0.141653,-2.135078 0.200726,-4.905033 1.074796,-7.621718 1.102217,0.2236 3.109423,-0.135247 4.488023,-0.770424 3.256995,-1.500611 5.745263,-4.146716 8.273249,-6.876911 2.884508,-3.142022 4.273711,-8.115465 4.538445,-12.760088 3.235233,-0.462927 6.091375,-0.20424 11.14144,-0.0579 4.232545,0.11979 5.006769,0.330417 7.469177,0.781047 1.655818,0.303027 3.346251,0.786424 4.883052,1.287551 0.122489,13.946462 4.4371,21.838657 13.065651,24.254452 6.956936,1.947781 13.815552,1.109194 21.416619,-2.110118 15.23107,-6.450901 19.5343,-17.754698 21.90033,-34.042245 1.72039,-11.843142 -2.00927,-25.544423 -7.64553,-37.9449078 1.02168,0.193641 0.9851,-0.01624 2.17196,0.405662 0.27118,0.9943224 1.38174,2.7559302 1.52652,4.1935406 2.70444,3.0882702 0.48637,-3.4633862 0.18293,-5.1562713 -0.28444,-1.58692007 -1.39262,-3.3252387 -1.83968,-4.4731091 -0.95997,-2.4648209 -2.73568,-5.8292677 -3.45663,-7.5313207 -0.49414,-1.1665897 -0.89966,-1.6883487 -1.8924,-2.4355107 -1.78877,-1.517004 -2.65128,-0.15154 -1.2547,0.85008 1.63929,1.137079 1.82508,2.567923 2.66857,4.2157601 0.55696,1.0783774 0.27079,0.8516273 0.27079,0.8516273 -1.5513,0.5173657 -2.79653,0.6495728 -4.41162,0.6495728 -0.47966,-1.4802871 -1.73838,-5.1784012 -2.13165,-6.6833112 -1.43329,-4.012446 -4.8061,-10.627611 -5.19658,-11.05979 1.9287,-1.424799 3.14694,-2.13561 4.65914,-2.94814 2.10185,-1.104027 3.97884,-2.733104 6.23425,-3.486092 1.56077,-0.2793 3.08841,-0.533826 4.63796,-0.549836 z m -29.343932,0.762224 c 4.193771,0.06023 6.645362,1.830351 9.948222,4.849318 1.57847,1.430864 1.77689,1.685541 3.07113,3.946012 1.56047,3.221778 3.48489,6.116653 4.27002,9.191688 0.95531,3.109901 1.67324,6.0851072 2.51148,8.9663727 0.71554,2.17801137 0.99557,4.5162471 1.76372,6.6548859 0.7614,2.0515568 0.38753,4.9751903 1.20095,7.3292644 1.15174,3.595547 2.22782,2.804115 1.54565,-0.124023 0.0598,-2.0635464 -0.58889,-2.8283978 -0.48111,-5.3185356 -0.22328,-1.0758004 -0.62272,-2.5774685 -0.89039,-3.5692879 0.59157,-0.03727 1.08793,-0.09966 2.92541,0.20102 3.25734,7.7508105 9.80429,23.1477845 7.90236,38.0606645 -2.05002,16.07396 -7.21876,26.32429 -21.22802,33.200441 -7.522027,2.870235 -13.919113,3.891829 -21.39832,1.801351 -8.261932,-2.309258 -11.443218,-14.064722 -11.091822,-23.222738 0.134064,-3.443542 0.102832,-5.896137 0.585493,-10.321793 0.273706,-2.457295 1.62641,-8.585682 2.626715,-11.899461 1.679056,-8.906499 3.618934,-13.683863 8.070088,-18.366837 3.561511,-3.5587058 6.203444,-6.88895 10.356178,-7.7829844 1.159163,-0.2562517 1.241783,-0.2604477 1.241783,-0.2604477 0,0 0.420987,1.1119311 0.721407,1.9559518 0.711717,1.9995288 1.190214,3.6866549 1.537881,5.4224053 1.183927,2.986228 1.002677,6.818712 1.821587,9.500195 1.60297,3.371424 1.00533,-1.724464 1.00253,-1.798341 -0.008,-3.389646 -0.53951,-5.064813 -1.1343,-8.193815 C 100.55164,6.7439531 99.105266,2.8673992 97.718585,-0.33335386 96.006452,-4.2709228 94.716918,-6.6068822 93.003624,-8.875461 c -2.247717,-4.096501 -3.150081,-2.344282 -1.213363,1.453657 0.735711,1.0001138 1.963187,3.0120656 1.963187,3.2178892 0,0.02862 -1.012031,0.7195428 -2.248958,1.5353051 -3.448463,2.27428284 -4.277921,2.80284546 -5.423958,3.45818713 C 84.014062,2.1415385 81.63718,2.7839022 79.995115,3.2483379 77.551434,3.9369526 76.472858,4.1584406 71.951679,4.901983 67.358586,5.6573707 64.359045,5.8772944 62.532615,5.5923807 59.161199,5.031427 57.644687,3.7090006 56.571222,1.3084061 c -0.749789,-1.68860196 -0.928407,-2.8706054 -0.768429,-5.0792718 1.296466,-5.2131089 2.093717,-7.2834043 6.306076,-9.8412583 4.064088,-3.457432 9.32085,-5.189855 13.483413,-7.641391 3.468245,-1.937367 6.514409,-3.124949 9.44077,-5.252395 1.621745,-1.182819 2.42612,-1.604483 4.266922,-2.235004 2.267426,-0.776655 3.275496,-0.959752 5.247224,-0.954466 z M 120.6505,-5.8637609 c 0.65076,0.9270808 1.012,3.1222136 1.59991,4.185788 0.33495,0.6345523 0.87509,1.67893363333 1.19476,2.43447733 0.48189,1.13893237 -0.55575,0.70316167 -0.85732,0.60461167 -4.95351,-1.20578434 -3.4383,-0.83978667 -5.51697,-0.73948867 -0.44283,-1.75292163 -0.83353,-3.41736673 -1.17771,-4.60385013 -0.1003,-0.3451887 -0.15987,-0.5346537 -0.20102,-0.6604267 0.0196,0.03757 0.0402,0.06577 0.0558,0.05013 1.94317,-0.2342327 3.37274,-0.3810597 4.90254,-1.2712395 z"
       id="path71"
       inkscape:connector-curvature="0"
       sodipodi:nodetypes="ccccccccccccsccccccccaccccssscaaaaasaacccscccccccccccssaasaasccccccccccccccccccccccccssccacccacsssccccsscccccccccccccccccccccsscscccccccccccccssccccccccccccccccccccc"
       inkscape:export-xdpi="96"
       inkscape:export-ydpi="96" />
  </g>
  <g
     inkscape:groupmode="layer"
     id="layer4"
     inkscape:label="Tułów tło"
     transform="translate(0,33)">
    <path
       style="fill:#ffffff;fill-opacity:1;stroke:none;stroke-width:0.26458332px;stroke-linecap:butt;stroke-linejoin:miter;stroke-opacity:1"
       d="m 108.21457,210.79918 c -10.595455,17.26589 -12.427638,30.78062 -17.652045,47.12595 -2.765574,9.14462 -8.239113,28.05929 -8.872402,32.88134 -0.474229,3.61092 14.952846,5.78243 22.848517,3.69421 4.1393,-18.24225 7.87699,-53.78636 24.18556,-70.96307 2.51538,9.55922 8.91516,52.4072 11.17764,65.59666 7.79703,5.04089 17.96993,-0.10332 19.51695,-3.57858 -2.35142,-13.30271 -9.93785,-63.35476 -13.37945,-84.45742 7.59382,-4.95134 11.98766,-7.12755 10.61902,-9.12682 -0.72226,-1.05505 -1.10204,-4.71382 -3.83296,-5.45829 -1.50167,-0.40936 -10.30037,4.07109 -10.30037,4.07109 -4.40995,-8.68626 -9.5772,-11.85469 -9.72593,-39.19824 26.80855,1.87257 41.69645,-7.00862 50.50077,-22.55173 4.44206,7.39852 11.88725,2.2859 13.1379,-4.35245 1.28674,-6.82995 -4.34963,-15.61133 -20.73784,-8.57071 -11.19761,10.81318 -7.70625,16.54233 -42.62453,14.40606 -18.25973,-2.452 -35.566105,0.20955 -50.925057,9.61316 -15.571988,11.67395 -18.633368,18.07355 -35.582288,18.5197 -16.577984,-1.86271 -39.8402307,-12.55817 -43.8682631,11.80637 3.1648183,18.16615 18.7198211,13.15987 22.2307701,2.27162 15.310844,4.12361 15.383563,4.04851 30.962374,3.443 10.911887,-0.32984 15.316003,-5.01719 36.546529,-17.14114 -0.754258,14.94448 4.702586,39.3365 15.775105,51.96929 z"
       id="path1851"
       inkscape:connector-curvature="0"
       sodipodi:nodetypes="ccscccccsscccsccccccccc" />
    <path
       style="fill:#bc750c;fill-opacity:1;stroke:none;stroke-width:0.26458332px;stroke-linecap:butt;stroke-linejoin:miter;stroke-opacity:1"
       d="m 113.11437,160.06856 c -7.98899,10.61677 3.50202,32.65578 12.82333,32.94898 4.79869,-3.07787 10.62245,-5.65206 13.91083,-7.46318 -6.06153,-7.95988 -6.35912,-19.80572 -6.91299,-27.06863 -4.45753,-4.22745 -16.19169,-2.25931 -19.82117,1.58283 z"
       id="path1856"
       inkscape:connector-curvature="0"
       sodipodi:nodetypes="ccccc" />
  </g>
  <g
     inkscape:groupmode="layer"
     id="layer3"
     inkscape:label="Tułów"
     transform="translate(0,33)">
    <path
       style="color:#000000;font-style:normal;font-variant:normal;font-weight:normal;font-stretch:normal;font-size:medium;line-height:normal;font-family:sans-serif;font-variant-ligatures:normal;font-variant-position:normal;font-variant-caps:normal;font-variant-numeric:normal;font-variant-alternates:normal;font-feature-settings:normal;text-indent:0;text-align:start;text-decoration:none;text-decoration-line:none;text-decoration-style:solid;text-decoration-color:#000000;letter-spacing:normal;word-spacing:normal;text-transform:none;writing-mode:lr-tb;direction:ltr;text-orientation:mixed;dominant-baseline:auto;baseline-shift:baseline;text-anchor:start;white-space:normal;shape-padding:0;clip-rule:nonzero;display:inline;overflow:visible;visibility:visible;opacity:1;isolation:auto;mix-blend-mode:normal;color-interpolation:sRGB;color-interpolation-filters:linearRGB;solid-color:#000000;solid-opacity:1;vector-effect:none;fill:#000000;fill-opacity:1;fill-rule:nonzero;stroke:none;stroke-width:1.46499979;stroke-linecap:round;stroke-linejoin:round;stroke-miterlimit:4;stroke-dasharray:none;stroke-dashoffset:0;stroke-opacity:1;color-rendering:auto;image-rendering:auto;shape-rendering:auto;text-rendering:auto;enable-background:accumulate"
       d="m 186.33848,112.04929 c -2.55864,-0.0345 -5.29079,0.51469 -7.34012,1.31206 h -5.3e-4 c -4.97163,1.97234 -8.67262,6.00325 -11.01741,10.14409 -0.002,0.005 -0.004,0.009 -0.006,0.0139 -3.48304,4.51724 -8.00644,4.92452 -14.30611,6.06888 -6.29966,1.14436 -8.38563,0.67363 -13.5971,0.44442 -14.3161,-0.62963 -23.79701,-1.82223 -35.45313,0.49971 -8.604078,1.71397 -13.219416,2.3954 -24.743695,9.87123 -0.01265,0.008 -0.02506,0.0165 -0.03721,0.0253 -7.058366,5.22535 -17.163589,14.65186 -25.601538,16.46308 -5.702141,1.22397 -12.095517,0.43946 -18.324462,-0.70125 -6.224521,-1.13991 -12.265776,-2.6312 -17.382919,-2.70526 -4.649482,-0.22584 -9.2196824,2.63208 -12.3749541,6.49211 -3.1584074,3.86386 -4.9719713,8.80588 -3.7496416,13.01006 0.9037921,3.10858 2.5749435,6.95722 5.7030109,8.94519 1.5640341,0.99399 3.8565178,1.57257 5.7515848,1.10381 4.870222,-1.20467 10.231513,-4.35462 11.754322,-9.40046 1.967511,0.60754 4.264697,1.28598 7.357174,1.89239 7.235901,1.4189 17.168968,2.32428 27.978652,0.29662 15.084208,-2.82946 25.168664,-13.7573 30.769182,-16.12769 -0.464773,5.79939 -0.06029,13.10517 1.179255,19.497 1.141238,5.88491 3.209145,11.6039 5.702498,17.05529 2.372651,5.18752 8.529921,14.30205 8.729171,14.71951 -0.063,0.24505 -9.993249,18.90576 -14.77015,37.00912 -2.405621,9.11675 -4.898062,18.45477 -6.962881,25.95293 -2.064821,7.49816 -3.731265,13.22583 -4.376994,14.86524 -1.527519,5.33522 7.260574,6.8652 10.919746,7.32412 3.068444,-0.11541 13.024059,1.12125 13.341809,-2.54455 0.029,-0.75687 0.35274,-2.71031 0.90434,-5.37901 0.5516,-2.66869 1.327,-6.10182 2.24999,-10.01953 1.84598,-7.83545 4.2824,-17.61741 6.71122,-27.17562 4.49299,-17.68136 11.63572,-24.42943 12.89482,-26.16068 1.19542,4.81928 7.44882,47.40426 10.83345,63.50363 0.61602,2.26742 2.74395,3.29435 4.68395,3.73258 5.22955,0.72734 8.8942,0.0987 13.32115,-2.46496 1.69873,-1.0133 3.32007,-2.76072 2.91765,-4.66638 l -9.88777,-61.36422 -0.002,-0.0139 c -0.003,-0.0212 -2.08531,-13.29886 -3.01274,-22.59965 4.02316,-4.01317 6.51004,-2.99491 10.24227,-7.66206 1.20515,-2.4613 -3.74092,-7.75473 -4.32739,-7.57008 -3.27404,-0.0668 -5.64473,1.29649 -10.17302,4.0752 -3.10426,-6.66829 -5.64066,-9.94225 -7.13651,-15.39803 -1.97379,-7.19899 -2.12712,-13.38826 -2.26291,-22.27977 16.49878,0.98144 27.47004,-0.4509 39.66114,-9.73067 2.55979,-1.94852 5.09025,-5.09836 7.01973,-8.12922 1.13239,-1.77876 2.20223,-3.28825 3.23443,-4.50567 0.7521,2.15831 2.41587,4.16202 4.64622,3.71657 3.27262,-1.01632 6.30313,-3.26353 8.1132,-5.8751 2.39279,-5.44247 1.07502,-9.33321 -1.56269,-12.67416 -1.69759,-2.15019 -5.03127,-2.67906 -7.70082,-2.87114 -0.16878,-0.008 -0.33896,-0.0127 -0.50953,-0.015 z m -0.49868,1.4335 c 0.29294,-10e-4 0.58605,0.008 0.88005,0.0284 v 5.2e-4 c 2.39401,0.16846 5.37389,0.63737 6.89054,2.56212 2.22636,2.82541 4.22498,6.2938 1.29087,10.71408 -1.9231,2.32559 -4.1819,4.55955 -7.21248,5.26531 -1.84526,0.21223 -2.8168,-2.01929 -3.19567,-3.33365 1.54371,-1.52211 4.1673,-4.48957 0.36639,-2.32647 -1.98996,1.41371 -4.05533,4.0744 -5.97742,7.09362 -1.92206,3.01922 -4.17633,5.81786 -6.53706,7.66259 -11.85909,9.26696 -22.65911,10.52152 -38.97592,9.52396 -0.002,-1.91831 -0.82735,-4.96438 -1.25729,-2.50424 0,0 -0.17803,1.11396 -0.18396,3.25458 0.0188,1.82482 0.0468,3.52794 0.0879,5.17953 -1.01352,-0.30821 -3.82994,-1.08408 -7.23987,-1.28106 -4.23816,-0.24481 -9.37731,0.43788 -12.54859,4.35581 -1.94582,2.12038 -2.44228,5.70151 -2.11511,9.73222 0.32821,4.04363 1.53834,8.57772 3.34346,12.62094 1.80512,4.04321 4.19095,7.59915 7.00784,9.64489 1.40844,1.02287 2.94218,1.66837 4.55063,1.73632 1.60638,0.0679 3.25731,-0.45559 4.83639,-1.63297 l 0.006,-0.004 c 4.60804,-3.36194 8.91495,-4.60123 9.94307,-4.86378 0.57253,1.1252 1.16185,2.33099 1.76216,3.66644 -0.76937,0.40473 -10.68375,5.02671 -7.0559,4.82658 11.94574,-5.26086 12.50936,-7.94126 17.95498,-8.44238 0.54734,0.0472 3.89383,3.81304 3.71812,5.57175 -4.06839,5.93795 -4.36759,1.0092 -14.40429,11.85251 h -0.001 c -2.2183,3.70129 2.78246,-1.0368 4.07934,-2.28513 1.01412,9.09172 2.80758,21.69945 2.80758,21.69945 0.003,0.0185 0.006,0.0367 0.0103,0.0548 l 9.89914,61.41899 c 0.13392,1.48606 -1.20098,2.45518 -2.23863,3.07838 -4.40475,2.12423 -7.56097,3.27517 -12.25661,2.29547 -1.46816,-0.35602 -3.27091,-1.10667 -3.56619,-2.60554 -3.66742,-20.38646 -5.63175,-33.0818 -11.11664,-64.47048 -0.66737,-2.64298 -10.60322,7.9448 -15.46314,27.07017 -2.42996,9.56271 -4.8694,19.34816 -6.71897,27.19888 -0.92476,3.92533 -1.70353,7.36751 -2.2598,10.05882 -0.55629,2.69129 -1.06105,4.50048 -1.10071,5.53762 -0.51441,1.05707 -2.28172,1.16764 -3.21944,1.2945 -5.346957,0.29803 -11.256349,0.32909 -16.013483,-2.09391 -1.360562,-0.69649 -2.546602,-1.95233 -2.033466,-3.30472 0.749427,-1.9027 2.358218,-7.50621 4.425569,-15.01355 2.067348,-7.50734 4.562724,-16.84943 6.969083,-25.96896 6.254097,-22.63315 12.314477,-31.45975 14.905537,-37.48505 1.58136,-3.09592 1.39884,-3.75951 -0.7953,-1.0511 -2.25294,-2.74193 -6.37063,-10.24323 -8.106477,-14.05341 -2.458888,-5.39732 -4.515268,-11.05265 -5.637889,-16.87649 -1.261499,-6.54427 -1.720684,-14.58125 -1.16789,-19.96002 0,0 4.881428,-3.00845 3.198255,-2.57142 0,0 -2.598095,0.64152 -4.317567,1.48363 -6.220602,2.24007 -15.949831,13.5841 -31.377929,16.47807 -10.571877,1.98305 -18.351941,0.89276 -27.425716,-0.22376 -4.133662,-0.50865 -8.900226,-2.41224 -12.146027,-2.93005 -1.961747,-0.23272 2.166448,1.71439 3.069581,2.14302 -1.215886,3.66466 -5.229957,7.10878 -10.556462,8.28683 -1.565082,0.34614 -3.431821,-0.0728 -4.7247751,-0.89452 -2.5859103,-1.64342 -4.2286552,-5.17718 -5.0839272,-8.11889 -1.0224873,-3.51682 0.5379241,-8.07497 3.4783405,-11.67215 2.9404158,-3.59718 7.1871008,-6.15811 11.1817448,-5.95881 0.0084,7.9e-4 0.01687,0.002 0.02532,0.002 4.846409,0.0682 10.868002,1.53061 17.152443,2.68148 6.284434,1.15088 12.85185,1.99306 18.89652,0.69557 9.195726,-1.97387 19.246379,-11.59281 26.154475,-16.70906 11.387675,-7.38323 15.579963,-7.92836 24.20471,-9.64644 11.41224,-2.27336 20.73772,-1.10477 35.10587,-0.47284 5.25213,0.23099 7.41572,0.71345 13.9206,-0.46818 6.49891,-1.18054 12.27382,-1.76854 15.39957,-6.95152 l 0.003,-0.006 c 10e-4,-0.003 0.002,-0.005 0.004,-0.008 2.22169,-3.62226 5.58875,-7.511 10.203,-9.34154 2.21068,-0.72029 4.24876,-1.23193 6.29936,-1.23972 z m -62.67886,43.25938 c 0.51541,-0.003 1.02673,0.0118 1.5291,0.0408 4.01899,0.23215 7.33186,1.35547 7.33186,1.35547 l 0.0305,-0.0894 c 0.19684,6.01167 0.70027,11.1187 2.22828,16.7256 1.09624,4.02255 2.83192,6.99008 4.83382,10.81433 -1.61013,0.44647 -5.74401,1.80617 -10.12755,5.00641 l -0.004,0.004 -0.002,0.002 c -1.36115,1.01645 -2.64876,1.40083 -3.90622,1.34772 -1.25745,-0.0531 -2.51528,-0.55894 -3.75223,-1.45727 -2.4739,-1.79664 -4.79378,-5.16638 -6.53138,-9.05836 -1.7376,-3.89198 -2.90666,-8.30217 -3.21841,-12.14293 -0.31175,-3.84076 0.29004,-7.07017 1.74615,-8.64237 l 0.0176,-0.0176 0.0155,-0.0196 c 2.3899,-2.96495 6.20086,-3.84963 9.8087,-3.86901 z"
       id="path1488"
       inkscape:connector-curvature="0" />
  </g>
</svg>
