<?xml version="1.0" encoding="UTF-8" standalone="no"?>
<!-- Created with Inkscape (http://www.inkscape.org/) -->

<svg
   xmlns:dc="http://purl.org/dc/elements/1.1/"
   xmlns:cc="http://creativecommons.org/ns#"
   xmlns:rdf="http://www.w3.org/1999/02/22-rdf-syntax-ns#"
   xmlns:svg="http://www.w3.org/2000/svg"
   xmlns="http://www.w3.org/2000/svg"
   xmlns:sodipodi="http://sodipodi.sourceforge.net/DTD/sodipodi-0.dtd"
   xmlns:inkscape="http://www.inkscape.org/namespaces/inkscape"
   width="200mm"
   height="330mm"
   viewBox="0 0 200 330"
   version="1.1"
   id="svg8"
   inkscape:version="0.92.4 (5da689c313, 2019-01-14)"
   sodipodi:docname="rex-parts.svg"
   inkscape:export-filename="D:\Programowanie\RiC_Magic\Assets\Graphics\rex_eyebrow.png"
   inkscape:export-xdpi="192"
   inkscape:export-ydpi="192">
  <defs
     id="defs2">
    <marker
       inkscape:stockid="EmptyDiamondSstart"
       orient="auto"
       refY="0"
       refX="0"
       id="EmptyDiamondSstart"
       style="overflow:visible"
       inkscape:isstock="true">
      <path
         id="path1613"
         d="M 0,-7.0710768 -7.0710894,0 0,7.0710589 7.0710462,0 Z"
         style="fill:#ffffff;fill-rule:evenodd;stroke:#000000;stroke-width:1.00000003pt;stroke-opacity:1"
         transform="matrix(0.2,0,0,0.2,1.2,0)"
         inkscape:connector-curvature="0" />
    </marker>
    <marker
       inkscape:stockid="Arrow1Send"
       orient="auto"
       refY="0"
       refX="0"
       id="Arrow1Send"
       style="overflow:visible"
       inkscape:isstock="true">
      <path
         id="path1507"
         d="M 0,0 5,-5 -12.5,0 5,5 Z"
         style="fill:#000000;fill-opacity:1;fill-rule:evenodd;stroke:#000000;stroke-width:1.00000003pt;stroke-opacity:1"
         transform="matrix(-0.2,0,0,-0.2,-1.2,0)"
         inkscape:connector-curvature="0" />
    </marker>
    <marker
       inkscape:stockid="Arrow1Lstart"
       orient="auto"
       refY="0"
       refX="0"
       id="Arrow1Lstart"
       style="overflow:visible"
       inkscape:isstock="true">
      <path
         id="path1492"
         d="M 0,0 5,-5 -12.5,0 5,5 Z"
         style="fill:#000000;fill-opacity:1;fill-rule:evenodd;stroke:#000000;stroke-width:1.00000003pt;stroke-opacity:1"
         transform="matrix(0.8,0,0,0.8,10,0)"
         inkscape:connector-curvature="0" />
    </marker>
  </defs>
  <sodipodi:namedview
     id="base"
     pagecolor="#ffffff"
     bordercolor="#666666"
     borderopacity="1.0"
     inkscape:pageopacity="0.0"
     inkscape:pageshadow="2"
     inkscape:zoom="1.4142136"
     inkscape:cx="281.9981"
     inkscape:cy="621.20378"
     inkscape:document-units="mm"
     inkscape:current-layer="layer11"
     showgrid="false"
     inkscape:window-width="3840"
     inkscape:window-height="2004"
     inkscape:window-x="-16"
     inkscape:window-y="-16"
     inkscape:window-maximized="1" />
  <metadata
     id="metadata5">
    <rdf:RDF>
      <cc:Work
         rdf:about="">
        <dc:format>image/svg+xml</dc:format>
        <dc:type
           rdf:resource="http://purl.org/dc/dcmitype/StillImage" />
        <dc:title />
      </cc:Work>
    </rdf:RDF>
  </metadata>
  <g
     inkscape:label="Głowa"
     inkscape:groupmode="layer"
     id="layer1"
     style="display:inline"
     transform="translate(0,33)">
    <path
       style="fill:#ffffff;fill-opacity:1;stroke:none;stroke-width:0.26458332px;stroke-linecap:butt;stroke-linejoin:miter;stroke-opacity:1"
       d="M 73.790088,52.057423 C 63.894425,49.212618 58.803106,48.437364 44.85428,48.345984 30.524047,62.174876 29.672,76.975212 31.062728,89.68552 c 6.770017,22.73725 11.425276,24.98877 23.15146,35.15242 6.810107,6.30428 17.833113,9.76531 28.474329,11.4124 12.718019,0.006 27.888273,-0.1531 43.418213,-6.87522 17.32233,-6.15288 23.66222,-19.38079 27.72927,-37.538482 2.00045,-8.931189 2.21201,-19.451159 3.48577,-30.924336 -0.61762,-18.370985 -2.33409,-40.445241 -15.6332,-53.1424255 -2.55119,-9.8617035 -1.20038,-22.8379905 -6.40461,-31.2325305 -3.9678,-7.457339 -12.52236,-11.998338 -27.79013,-0.07144 l 7.05472,18.3334909 6.77013,-1.1642885 c 0,0 2.02521,5.0072094 3.33131,9.0149098 -0.78588,1.0173324 -2.48678,-0.6705094 -3.88731,-0.9271554 2.72035,6.6588274 6.19597,16.1879082 8.04895,27.4463492 2.01856,24.568902 -8.54761,37.597497 -19.80261,44.207901 C 98.820739,77.403009 88.995928,80.270264 79.36978,72.217599 75.841769,66.371882 74.282238,60.432025 73.790088,52.057423 Z"
       id="path910"
       inkscape:connector-curvature="0"
       sodipodi:nodetypes="ccccccccccccccccccc"
       inkscape:export-xdpi="96"
       inkscape:export-ydpi="96" />
    <path
       style="fill:#bc750c;fill-opacity:1;stroke:none;stroke-width:0.26458332px;stroke-linecap:butt;stroke-linejoin:miter;stroke-opacity:1"
       d="M 73.623045,52.82582 C 74.308433,40.767226 77.380829,29.407222 80.621618,17.252135 84.851953,7.7892515 96.064391,2.9128972 97.904042,2.5174075 96.701232,-0.56512993 95.918815,-4.5360814 94.545314,-4.1343577 87.479746,1.2940821 80.124978,4.836702 64.899839,6.9676578 49.04764,4.732469 52.100567,-7.5324986 64.869039,-17.215401 c 9.853377,-4.825785 22.164905,-12.091087 30.478794,-13.749626 15.124077,4.437516 18.438077,20.288264 21.326917,32.0702471 1.25541,2.3531738 3.0655,-1.04453734 4.08793,0.6176427 5.81372,14.5949282 8.89371,19.3853842 8.13297,36.3522312 -0.26739,19.113649 -12.37214,37.359917 -32.940197,39.306345 -11.203535,0.637037 -21.514457,-2.808842 -22.088447,-17.481391 0.05566,-2.191168 0.245322,-4.583283 -0.243959,-7.074228 z"
       id="path899"
       inkscape:connector-curvature="0"
       sodipodi:nodetypes="ccccccccccccc"
       inkscape:export-xdpi="96"
       inkscape:export-ydpi="96" />
    <path
       style="display:inline;fill:#000000;stroke-width:0.40000001"
       d="m 467.30273,2.3144531 c -7.80789,-0.028724 -15.59784,1.2859441 -22.70898,4.1074219 -7.44843,3.0423307 -14.17204,8.684163 -20.77344,12.179687 -9.38611,5.464653 -11.49305,5.696283 -18.42773,12.25 C 391.7523,12.042447 364.11091,3.8300139 349.43164,6.1835938 338.57996,8.547843 325.51083,12.792543 319.34375,17.28125 c -11.14064,9.250662 -25.069,13.778624 -36.69727,20.666016 -14.96606,8.227207 -29.77387,13.482179 -43.81054,23.84375 -10.16863,7.365996 -22.13673,14.367824 -27.89453,25.308593 -5.79973,13.738741 -9.75967,25.647761 -6.27735,38.574221 0.976,3.5632 4.38245,10.86639 7.13477,15.29883 8.31646,10.1009 21.87898,12.17747 31.94336,12.20117 9.2646,0.004 16.13411,-0.73739 32.40039,-3.49219 17.62388,-2.98472 18.51048,-3.16688 26.59961,-5.47656 15.5001,-4.09226 23.42648,-8.5337 35.09179,-16.20313 7.68524,-5.01924 13.06542,-9.77398 18.20704,-16.20898 2.80694,6.41241 7.39023,13.48033 9.10156,20.27344 -30.30668,9.04979 -45.06724,31.21269 -58.45508,48.87109 -11.00003,16.73115 -12.89903,31.82717 -18.00781,50.13477 -3.67892,12.29808 -8.99077,34.3494 -10.89649,45.23242 -1.94891,15.14867 -1.43412,25.35383 -2.03711,40.36914 -0.049,0 -6.62879,-2.4086 -10.04492,-3.25586 -9.30528,-2.30785 -14.69325,-3.57973 -28.33203,-4.94727 -25.06486,-2.05473 -43.58357,-2.95737 -63.73437,-3.10742 -8.90424,-0.0673 -15.9174,2.38024 -23.96875,6.1836 -15.84316,6.56698 -22.21772,25.13564 -26.57618,38.41796 -4.39675,13.05638 -6.97343,27.23882 -9.51172,41.05469 -1.81016,9.85291 -2.78465,23.16276 -3.17382,31.02735 -0.52325,10.5742 2.15436,38.37058 5.77343,52.99023 1.27395,5.14629 5.65399,17.77987 9.48438,27.35937 3.50939,8.77681 12.95421,31.64765 23.50977,44.80079 23.89481,29.775 53.80802,55.93585 87.48632,73.91601 22.62681,12.08001 48.45796,18.54664 73.96875,21.21094 36.54328,3.81653 73.81933,-1.14452 109.94727,-7.83399 21.76664,-4.03033 43.31521,-10.31349 63.54101,-19.31054 9.13319,-4.06273 17.70347,-9.45812 25.68946,-15.47071 9.97969,-7.51366 20.46866,-14.00376 28.71679,-23.11132 10.83436,-11.96323 20.55333,-25.52547 26.48243,-40.53711 22.885,-57.94168 31.27543,-128.04271 32.28906,-184.08203 0.43419,-25.45021 -1.78925,-61.87068 -4.41602,-76.23243 -1.51128,-9.18302 -4.81104,-34.85695 -7.36914,-43.15234 -5.05659,-16.39733 -5.55529,-20.93707 -10.42578,-30.52148 -9.75923,-19.20468 -3.80343,-14.6962 -37.08398,-52.92774 -0.034,-7.3118 -2.50424,-18.19292 -3.32032,-25 -1.61332,-19.97094 -2.96334,-30.443503 -6.41015,-49.179686 C 524.81993,48.563665 507.10421,16.354229 490.12109,6.2695312 482.93648,3.7152625 475.11063,2.3431738 467.30273,2.3144531 Z M 468.25,9.609375 c 5.85657,-0.06051 11.79584,0.780434 18.0293,3.333984 18.40921,12.85479 29.96962,46.922511 32.84179,63.636719 4.04584,21.537336 5.30092,29.694442 7.54883,48.765622 1.00301,8.47856 5.33845,31.92127 4.00196,36.18555 0.92838,10.1611 7.31498,2.33184 5.85937,-2.8125 20.81155,19.43684 25.88188,30.34033 33.74609,48.35352 9.15122,20.96123 11.21437,44.42639 14.56836,67.05078 3.5206,23.74803 6.19275,53.04665 5.42774,79.64648 -1.32348,46.01734 -5.63279,92.4882 -17.29297,137.02344 -6.11819,23.36818 -10.29038,41.27908 -27.32422,67.11914 -17.33556,26.29784 -45.77765,44.05903 -74.47266,55.88672 -49.82063,20.53534 -106.34221,25.70444 -160.11914,22.26367 -22.56653,-1.44386 -44.72181,-7.2494 -65.45507,-17.83008 C 190.84015,585.1117 142.9458,544.37085 127.01562,485.47461 c -3.63825,-10.12658 -4.09231,-11.91069 -6.24218,-24.56641 -2.84166,-16.72816 -3.59153,-31.87694 -3.16602,-39.26172 0.53538,-8.06958 0.75893,-18.53885 4.0625,-28.80664 4.16586,0.84511 11.75244,-0.51144 16.96289,-2.91211 12.3099,-5.6716 21.71494,-15.67138 31.26953,-25.99023 10.90208,-11.87536 16.15178,-30.67208 17.15235,-48.22656 12.22765,-1.74965 23.02251,-0.77185 42.10937,-0.21875 15.99702,0.45275 18.92373,1.248 28.23047,2.95117 6.25821,1.1453 12.6467,2.97316 18.45508,4.86719 0.46295,52.71103 16.77097,82.53935 49.38281,91.66992 26.29393,7.36169 52.21492,4.19091 80.94336,-7.97656 57.56625,-24.38136 73.83096,-67.10288 82.77344,-128.66211 6.50226,-44.76148 -7.59409,-96.54609 -28.89649,-143.41407 3.86147,0.73188 3.72322,-0.0614 8.20899,1.53321 1.02493,3.75807 5.22233,10.41612 5.76953,15.84961 10.22151,11.6722 1.83827,-13.08998 0.69141,-19.48828 -1.07505,-5.99781 -5.26345,-12.56785 -6.95313,-16.90625 -3.62823,-9.31586 -10.3396,-22.031892 -13.06445,-28.464848 -1.86762,-4.409158 -3.40026,-6.381159 -7.15235,-9.205078 -6.7607,-5.733559 -10.0206,-0.57276 -4.74218,3.21289 6.19574,4.297622 6.89794,9.705548 10.08593,15.933594 2.10505,4.075762 1.02344,3.218752 1.02344,3.218752 -5.86318,1.9554 -10.56955,2.45508 -16.67383,2.45508 -1.81288,-5.594798 -6.57026,-19.571921 -8.05664,-25.259769 -5.41716,-15.165151 -18.16479,-40.167349 -19.64062,-41.800782 7.28957,-5.385067 11.89397,-8.071598 17.60937,-11.142578 7.944,-4.1727 15.03812,-10.329842 23.5625,-13.175781 5.89898,-1.055622 11.67273,-2.0176148 17.5293,-2.078125 z m -110.90625,2.880859 c 15.85047,0.227641 25.11636,6.917857 37.59961,18.328125 5.96587,5.40799 6.71581,6.37055 11.60742,14.914063 5.89784,12.176799 13.17125,23.118055 16.13867,34.740234 3.61062,11.753957 6.32404,22.998854 9.49219,33.888674 2.7044,8.23185 3.76277,17.0693 6.66602,25.15234 2.87773,7.75392 1.46472,18.80389 4.53906,27.70117 4.35303,13.58947 8.42008,10.59823 5.8418,-0.46875 0.22601,-7.79923 -2.22572,-10.69001 -1.81836,-20.10156 -0.8439,-4.06602 -2.35357,-9.74162 -3.36524,-13.49023 2.23586,-0.14087 4.11184,-0.37667 11.05664,0.75976 12.31121,29.2944 37.05559,87.48793 29.86719,143.85156 -7.74811,60.75198 -27.28404,99.49187 -80.23242,125.48047 -28.42971,10.84814 -52.60713,14.70962 -80.875,6.8086 -31.2262,-8.72791 -43.24999,-53.15656 -41.92188,-87.76953 0.5067,-13.01497 0.38866,-22.28483 2.21289,-39.01172 1.03448,-9.28742 6.14706,-32.45009 9.92774,-44.97461 6.34604,-33.66236 13.67869,-51.71854 30.50195,-69.41797 13.46083,-13.45023 23.44525,-26.03699 39.14063,-29.41602 4.38108,-0.96851 4.69336,-0.98437 4.69336,-0.98437 0,0 1.59111,4.20258 2.72656,7.39258 2.68995,7.55727 4.49848,13.93382 5.8125,20.49414 4.47468,11.28653 3.78967,25.77151 6.88476,35.90625 6.05847,12.74239 3.79965,-6.51766 3.78907,-6.79688 -0.0302,-12.81126 -2.03909,-19.1426 -4.28711,-30.96875 -3.30407,-14.29407 -8.77072,-28.94563 -14.01172,-41.04297 -6.47106,-14.88215 -11.34487,-23.710997 -17.82031,-32.285152 -8.49531,-15.482839 -11.90582,-8.860275 -4.58594,5.49414 2.78064,3.779962 7.41992,11.384192 7.41992,12.162112 0,0.10817 -3.825,2.71954 -8.5,5.80273 -13.03356,8.59572 -16.16852,10.59343 -20.5,13.07031 -7.81028,5.10978 -16.79377,7.53763 -23,9.29297 -9.23596,2.60264 -13.31247,3.43976 -30.40039,6.25 -17.35972,2.85501 -28.69657,3.68622 -35.59961,2.60938 -12.74236,-2.12014 -18.47406,-7.1183 -22.53125,-16.19141 -2.83385,-6.38212 -3.50894,-10.84955 -2.9043,-19.19726 4.90003,-19.703097 7.91326,-27.527837 23.83399,-37.195316 15.36033,-13.06746 35.22842,-19.615212 50.96093,-28.88086 13.10833,-7.322332 24.62138,-11.810821 35.68165,-19.851562 6.12943,-4.470497 9.16959,-6.064194 16.12695,-8.447266 8.5698,-2.935389 12.37983,-3.6274 19.83203,-3.607422 z m 98.6582,90.072266 c 2.45957,3.50393 3.82486,11.8005 6.04688,15.82031 1.26595,2.39831 3.30742,6.34558 4.51562,9.20117 1.82132,4.30463 -2.10044,2.65763 -3.24023,2.28516 -18.72193,-4.55729 -12.99517,-3.174 -20.85156,-2.79492 -1.67369,-6.62522 -3.15034,-12.91605 -4.45118,-17.40039 -0.37908,-1.30465 -0.60423,-2.02073 -0.75976,-2.4961 0.0741,0.142 0.15198,0.24857 0.21094,0.18946 7.34426,-0.88529 12.74737,-1.44023 18.52929,-4.80469 z"
       id="path879"
       transform="matrix(0.26458333,0,0,0.26458333,0,-33)"
       inkscape:connector-curvature="0" />
  </g>
  <g
     inkscape:groupmode="layer"
     id="layer10"
     inkscape:label="Ręka_prawa"
     style="display:inline">
    <path
       transform="translate(0,33)"
       style="display:inline;fill:#ffffff;fill-opacity:1;stroke:#0000ff;stroke-width:0.26458332px;stroke-linecap:butt;stroke-linejoin:miter;stroke-opacity:1"
       d="m 132.7991,151.38601 c 26.80855,1.87257 41.69645,-7.00862 50.50077,-22.55173 4.44206,7.39852 11.88725,2.2859 13.1379,-4.35245 1.28674,-6.82995 -4.34963,-15.61133 -20.73784,-8.57071 -11.19761,10.81318 -7.70625,16.54233 -42.62453,14.40606 -9.73336,0.34245 -15.20304,19.19521 -0.2763,21.06883 z"
       id="path1851"
       inkscape:connector-curvature="0"
       sodipodi:nodetypes="ccsccc" />
    <path
       style="display:inline;fill:#000000;fill-opacity:1;stroke:none;stroke-width:0.99999994px;stroke-linecap:butt;stroke-linejoin:miter;stroke-opacity:1"
       d="m 505.45229,620.46275 c 7.9328,0.47304 14.83646,0.87109 23.72154,1.26186 19.85057,0.87305 28.02791,2.69647 52.61328,-1.76953 24.56281,-4.46189 46.38927,-6.68422 58.20312,-26.27344 l 0.01,-0.0234 c 0.004,-0.0113 0.008,-0.018 0.0156,-0.0293 8.39694,-13.69044 21.12285,-28.38807 38.5625,-35.30664 8.35533,-2.72236 16.0583,-4.65611 23.8086,-4.68555 v -0.002 c 1.10717,-0.004 2.21499,0.0303 3.32617,0.10742 v 0.002 c 9.04823,0.6367 20.31075,2.40895 26.04297,9.68359 8.41459,10.67872 15.96846,23.78757 4.87891,40.49415 -7.26841,8.7896 -15.80561,17.23295 -27.25977,19.90039 -6.97421,0.80212 -10.64621,-7.63195 -12.07812,-12.59961 5.83446,-5.75286 15.7504,-16.96847 1.38476,-8.79297 -7.52111,5.34315 -15.3272,15.39932 -22.5918,26.81054 -7.26447,11.41123 -15.78458,21.98873 -24.70703,28.96094 -44.77174,34.98565 -84.13612,37.93426 -145.72921,36.00869 -3.27512,-0.10239 -5.75891,-0.85103 -5.70482,1.71863 -0.3209,3.31965 2.55319,3.6472 5.92445,3.80038 62.2863,2.83001 102.32682,-1.75245 148.35333,-36.78746 9.6748,-7.36449 19.23873,-19.26939 26.53125,-30.72461 4.2799,-6.72288 8.32338,-12.42998 12.22461,-17.03125 2.84258,8.15739 9.13088,15.73046 17.56055,14.04687 12.36896,-3.84121 23.82285,-12.33458 30.66406,-22.20508 9.04362,-20.56996 4.06305,-35.27513 -5.90625,-47.90234 -6.41609,-8.1267 -19.01583,-10.12559 -29.10547,-10.85156 -0.63791,-0.0302 -1.2811,-0.048 -1.92578,-0.0566 l 0.002,0.002 c -9.67045,-0.13039 -19.99668,1.94335 -27.74218,4.95703 h -0.002 c -18.79041,7.45451 -32.77842,22.69138 -41.64062,38.3418 -0.008,0.0189 -0.0159,0.0323 -0.0234,0.0508 -13.16424,17.07303 -30.26053,18.61236 -54.07031,22.9375 -23.80974,4.32514 -31.69373,2.54599 -51.39063,1.67969 -8.95976,-0.39406 -17.27265,-1.01199 -25.35428,-1.28043 -3.00305,-0.0997 -7.31294,5.60479 -8.39401,2.25489 2.42773,-3.5555 7.0583,3.13923 9.79798,3.3026 z"
       id="path927"
       inkscape:connector-curvature="0"
       sodipodi:nodetypes="sssccccccccccccccsscscccccccccccccssscs"
       transform="scale(0.26458333)" />
  </g>
  <g
     inkscape:groupmode="layer"
     id="layer3"
     inkscape:label="Tułów"
     transform="translate(0,33)"
     style="display:inline">
    <path
       inkscape:connector-curvature="0"
       id="path931"
       d="m 108.21457,210.79918 c -10.595455,17.26589 -12.427638,30.78062 -17.652045,47.12595 -2.765574,9.14462 -8.239113,28.05929 -8.872402,32.88134 -0.474229,3.61092 14.952846,5.78243 22.848517,3.69421 4.1393,-18.24225 7.87699,-53.78636 24.18556,-70.96307 2.51538,9.55922 8.91516,52.4072 11.17764,65.59666 7.79703,5.04089 17.96993,-0.10332 19.51695,-3.57858 -2.35142,-13.30271 -9.93785,-63.35476 -13.37945,-84.45742 7.59382,-4.95134 11.98766,-7.12755 10.61902,-9.12682 -0.72226,-1.05505 -1.10204,-4.71382 -3.83296,-5.45829 -1.50167,-0.40936 -10.30037,4.07109 -10.30037,4.07109 -4.40995,-8.68626 -9.5772,-11.85469 -9.72593,-39.19824 6.75312,-6.49492 8.19859,-14.26863 0.49128,-20.72156 -20.90557,-2.18742 -29.18322,0.30293 -38.324463,3.09196 -8.200199,3.73993 -9.705441,15.26172 -2.526452,25.07348 -0.754258,14.94448 4.702586,39.3365 15.775105,51.96929 z"
       style="display:inline;fill:#ffffff;fill-opacity:1;stroke:none;stroke-width:0.26458332px;stroke-linecap:butt;stroke-linejoin:miter;stroke-opacity:1"
       sodipodi:nodetypes="ccsccccccccccccc" />
    <path
       style="display:inline;fill:#bc750c;fill-opacity:1;stroke:none;stroke-width:0.26458332px;stroke-linecap:butt;stroke-linejoin:miter;stroke-opacity:1"
       d="m 113.11437,160.06856 c -7.98899,10.61677 3.50202,32.65578 12.82333,32.94898 4.79869,-3.07787 10.62245,-5.65206 13.91083,-7.46318 -6.06153,-7.95988 -6.35912,-19.80572 -6.91299,-27.06863 -4.45753,-4.22745 -16.19169,-2.25931 -19.82117,1.58283 z"
       id="path1856"
       inkscape:connector-curvature="0"
       sodipodi:nodetypes="ccccc" />
    <path
       style="color:#000000;font-style:normal;font-variant:normal;font-weight:normal;font-stretch:normal;font-size:medium;line-height:normal;font-family:sans-serif;font-variant-ligatures:normal;font-variant-position:normal;font-variant-caps:normal;font-variant-numeric:normal;font-variant-alternates:normal;font-feature-settings:normal;text-indent:0;text-align:start;text-decoration:none;text-decoration-line:none;text-decoration-style:solid;text-decoration-color:#000000;letter-spacing:normal;word-spacing:normal;text-transform:none;writing-mode:lr-tb;direction:ltr;text-orientation:mixed;dominant-baseline:auto;baseline-shift:baseline;text-anchor:start;white-space:normal;shape-padding:0;clip-rule:nonzero;display:inline;overflow:visible;visibility:visible;opacity:1;isolation:auto;mix-blend-mode:normal;color-interpolation:sRGB;color-interpolation-filters:linearRGB;solid-color:#000000;solid-opacity:1;vector-effect:none;fill:#000000;fill-opacity:1;fill-rule:nonzero;stroke:none;stroke-width:5.53700733;stroke-linecap:round;stroke-linejoin:round;stroke-miterlimit:4;stroke-dasharray:none;stroke-dashoffset:0;stroke-opacity:1;color-rendering:auto;image-rendering:auto;shape-rendering:auto;text-rendering:auto;enable-background:accumulate"
       d="m 453.875,612.91406 c -19.41081,-0.11713 -37.86438,1.05568 -58.46875,5.16016 -14.26668,2.84199 -23.58833,3.95124 -37.57617,8.77539 -0.70684,0.24378 -3.12618,3.18325 -3.29297,3.06445 -0.16679,-0.1188 1.15651,3.35084 4.90234,2.07422 17.61726,-6.00414 22.3858,-5.55524 37.05078,-8.47656 35.93704,-7.15879 66.53899,-5.12189 107.11915,-3.07422 6.58852,0.33246 9.60321,-1.95608 9.62109,-2.59961 -0.26537,-0.84184 -5.48283,-2.81291 -10.86133,-3.08008 -17.71958,-0.88018 -33.39685,-1.75264 -48.49414,-1.84375 z M 500.95508,681.25 c -0.59804,-0.10876 -1.17774,0.86731 -1.63477,3.48242 0,0 -0.6729,4.21025 -0.69531,12.30078 0.0711,6.89696 0.17669,13.33395 0.33203,19.57618 -3.83063,-1.16489 -14.47536,-4.09731 -27.36328,-4.8418 -16.01824,-0.92527 -35.44179,1.65496 -47.42773,16.46289 -7.35428,8.01403 -9.23069,21.54902 -7.99414,36.7832 1.24044,15.28301 5.81421,32.41971 12.63671,47.70117 6.8225,15.28143 15.83982,28.7212 26.48633,36.45313 5.32324,3.86596 11.12004,6.30568 17.19922,6.5625 6.07136,0.25663 12.31112,-1.72194 18.2793,-6.17188 l 0.0234,-0.0137 c 17.41618,-12.70654 33.69427,-17.3905 37.58007,-18.38281 2.1639,4.25272 4.39127,8.81005 6.66016,13.85742 -2.90786,1.52969 -40.37953,18.99859 -26.66797,18.24219 45.14925,-19.88357 47.27946,-30.01421 67.86133,-31.9082 2.06869,0.17839 14.71683,14.4115 14.05273,21.05859 -15.37659,22.44265 -16.50742,3.81429 -54.4414,44.79687 h -0.004 c -8.38413,13.98913 10.51638,-3.91862 15.41797,-8.63671 3.83289,34.3624 10.61133,82.01367 10.61133,82.01367 0.0113,0.0699 0.0228,0.13862 0.0391,0.20703 l 37.41406,232.13476 c 0.50616,5.6166 -4.53914,9.2794 -8.46093,11.6348 -16.64788,8.0286 -28.57692,12.3786 -46.32422,8.6758 -5.54895,-1.3456 -12.3625,-4.1827 -13.47852,-9.8477 -13.86111,-77.0512 -21.28533,-125.0336 -42.01562,-243.66797 -2.52235,-9.98922 -40.07516,30.02751 -58.44336,102.31257 -9.1841,36.1425 -18.40403,73.1268 -25.39454,102.7988 -3.49512,14.8359 -6.43857,27.8457 -8.54101,38.0176 -2.10251,10.1718 -4.01026,17.0101 -4.16016,20.9296 -1.94422,3.9953 -8.62383,4.4132 -12.16797,4.8926 -20.20897,1.1264 -42.54371,1.2438 -60.52343,-7.914 -5.14228,-2.6324 -9.62496,-7.3789 -7.68555,-12.4903 2.83248,-7.1913 8.91295,-28.3699 16.72656,-56.7441 7.8136,-28.3742 17.24495,-63.6829 26.33985,-98.1504 23.63753,-85.54264 46.54295,-118.90302 56.33593,-141.67581 5.9768,-11.70112 5.28696,-14.20917 -3.00586,-3.97266 -8.51504,-10.3632 -24.07799,-38.71455 -30.63867,-53.11523 -9.29343,-20.39932 -17.06561,-41.77379 -21.30859,-63.78516 -4.76787,-24.73425 -6.72211,-54.98524 -4.63281,-75.31445 0.97335,-7.24594 -4.87655,-2.59377 -5.29297,2.79297 -1.75662,21.91895 -0.22787,49.53135 4.45703,73.68945 4.31334,22.24218 12.12904,43.85726 21.55273,64.46094 8.9675,19.60637 32.23912,54.05501 32.99219,55.63281 -0.23811,0.92617 -37.76979,71.45489 -55.82422,139.87694 -9.09211,34.4571 -18.51236,69.7504 -26.3164,98.0899 -7.80405,28.3395 -14.10242,49.9874 -16.54297,56.1836 -5.7733,20.1646 27.44154,25.9471 41.27148,27.6816 11.59727,-0.4362 49.22484,4.2378 50.42578,-9.6172 0.10961,-2.8606 1.33318,-10.2436 3.41797,-20.33 2.08479,-10.0864 5.01544,-23.0621 8.50391,-37.8692 6.97693,-29.6143 16.18544,-66.5854 25.36523,-102.7109 16.98138,-66.8272 43.97753,-92.33174 48.73633,-98.87505 4.51812,18.2146 28.15301,179.16595 40.94531,240.01365 2.32827,8.5698 10.37084,12.4512 17.70313,14.1075 19.76523,2.749 33.61587,0.373 50.34765,-9.3164 6.4204,-3.8298 12.5483,-10.4343 11.02735,-17.6368 l -37.3711,-231.92772 -0.008,-0.0527 c -0.0113,-0.0801 -7.88147,-50.26343 -11.38672,-85.41602 15.20565,-15.16788 24.60487,-11.31936 38.71094,-28.95898 4.5549,-9.30255 -14.13889,-29.30922 -16.35547,-28.61133 -12.37432,-0.25247 -21.33442,4.90013 -38.44922,15.40234 -11.73263,-25.20298 -21.31905,-37.57699 -26.97265,-58.19726 -7.46,-27.20878 -8.03952,-50.60133 -8.55274,-84.20703 l -0.1914,-5.61328 c -0.006,-5.21116 -1.65137,-12.57557 -3.17969,-12.85352 z m -35.4668,35.88477 0.002,0.002 c 1.94801,-0.0113 3.88058,0.0427 5.7793,0.15234 15.18988,0.87742 27.71094,5.12305 27.71094,5.12305 l 0.11523,-0.33789 c 0.74397,22.72127 2.64672,42.02341 8.42188,63.21484 4.14327,15.20334 10.70329,26.41919 18.26953,40.87305 -6.08553,1.68745 -21.70963,6.82648 -38.27734,18.92187 l -0.0156,0.0156 -0.008,0.008 c -5.14451,3.8417 -10.01107,5.29448 -14.76367,5.09375 -4.75257,-0.20069 -9.50656,-2.11255 -14.18164,-5.50781 -9.35018,-6.79045 -18.11824,-19.52648 -24.68555,-34.23633 -6.56731,-14.70984 -10.9858,-31.37827 -12.16406,-45.89453 -1.17827,-14.51626 1.0962,-26.72189 6.59961,-32.66406 l 0.0664,-0.0664 0.0586,-0.0742 c 9.03269,-11.20611 23.43633,-14.5498 37.07226,-14.62304 z"
       transform="matrix(0.26458333,0,0,0.26458333,0,-33)"
       id="path905"
       inkscape:connector-curvature="0" />
  </g>
  <g
     inkscape:groupmode="layer"
     id="layer9"
     inkscape:label="Ręka_lewa"
     style="display:inline">
    <path
       transform="translate(0,33)"
       inkscape:connector-curvature="0"
       id="path936"
       d="m 91.972999,134.80404 c -21.359748,8.53202 -23.75967,23.03449 -45.404944,23.646 -16.577984,-1.86271 -39.8402307,-12.55817 -43.8682631,11.80637 3.1648183,18.16615 18.7198211,13.15987 22.2307701,2.27162 15.310844,4.12361 15.383563,4.04851 30.962374,3.443 10.911887,-0.32984 18.755586,-5.38099 36.281946,-17.8026 25.976238,-9.21789 11.376218,-26.28765 -0.201883,-23.36439 z"
       style="display:inline;fill:#ffffff;fill-opacity:1;stroke:none;stroke-width:0.26458332px;stroke-linecap:butt;stroke-linejoin:miter;stroke-opacity:1"
       sodipodi:nodetypes="ccccccc" />
    <path
       style="color:#000000;font-style:normal;font-variant:normal;font-weight:normal;font-stretch:normal;font-size:medium;line-height:normal;font-family:sans-serif;font-variant-ligatures:normal;font-variant-position:normal;font-variant-caps:normal;font-variant-numeric:normal;font-variant-alternates:normal;font-feature-settings:normal;text-indent:0;text-align:start;text-decoration:none;text-decoration-line:none;text-decoration-style:solid;text-decoration-color:#000000;letter-spacing:normal;word-spacing:normal;text-transform:none;writing-mode:lr-tb;direction:ltr;text-orientation:mixed;dominant-baseline:auto;baseline-shift:baseline;text-anchor:start;white-space:normal;shape-padding:0;clip-rule:nonzero;display:inline;overflow:visible;visibility:visible;opacity:1;isolation:auto;mix-blend-mode:normal;color-interpolation:sRGB;color-interpolation-filters:linearRGB;solid-color:#000000;solid-opacity:1;vector-effect:none;fill:#000000;fill-opacity:1;fill-rule:nonzero;stroke:none;stroke-width:5.53700733;stroke-linecap:round;stroke-linejoin:round;stroke-miterlimit:4;stroke-dasharray:none;stroke-dashoffset:0;stroke-opacity:1;color-rendering:auto;image-rendering:auto;shape-rendering:auto;text-rendering:auto;enable-background:accumulate"
       d="m 355.8742,627.42148 c -14.73024,5.70863 -29.96633,12.37906 -53.98722,27.96147 -0.0478,0.0302 -0.0947,0.0625 -0.14063,0.0957 -26.67729,19.74935 -64.87027,55.3771 -96.76171,62.22265 -21.5514,4.62603 -45.71535,1.66096 -69.25782,-2.65039 -23.52575,-4.30832 -46.358833,-9.9447 -65.699216,-10.22461 -17.572846,-0.85357 -34.846048,9.94802 -46.771485,24.53711 -11.937285,14.60357 -18.7917034,33.28206 -14.1718746,49.17188 3.4159076,11.74896 9.7320706,26.295 21.5546876,33.80859 5.91131,3.75681 14.575823,5.94357 21.738281,4.17187 18.407138,-4.55306 38.670283,-16.4584 44.425781,-35.52929 7.436266,2.29621 16.118536,4.8604 27.806646,7.15234 27.34826,5.36277 64.89059,8.78469 105.74609,1.1211 57.01118,-10.69403 94.87566,-52.93363 116.04297,-61.89258 6.74843,-3.49595 24.8071,-13.25744 17.84961,-11.69922 0,0 -9.57246,2.98879 -16.31836,5.60742 -23.29533,9.04279 -60.28283,51.34146 -118.59375,62.2793 -39.9567,7.49499 -69.36167,3.37421 -103.65625,-0.84571 -15.62329,-1.92245 -33.63866,-9.11714 -45.906252,-11.07421 -7.414477,-0.87958 8.188146,6.47959 11.601562,8.09961 -4.595475,13.85066 -19.766765,26.86784 -39.898438,31.32031 -5.915268,1.30824 -12.970666,-0.27515 -17.857421,-3.38086 -9.77352,-6.21135 -15.98232,-19.56727 -19.214844,-30.68555 -3.864519,-13.29192 2.033099,-30.51959 13.146484,-44.11523 11.113383,-13.59564 27.163852,-23.27475 42.261719,-22.52149 0.03175,0.003 0.06377,0.008 0.0957,0.008 18.317137,0.25774 41.07591,5.78502 64.82813,10.13476 23.75219,4.34978 48.57392,7.53281 71.41992,2.62891 34.7555,-7.4603 72.74222,-43.81534 98.85156,-63.15235 23.30097,-15.10724 38.8126,-22.08539 52.9574,-27.37925 2.15411,-0.8062 5.71466,-3.03845 6.10243,-4.85035 -1.1771,-1.70922 -5.16049,-1.49543 -8.1937,-0.31993 z"
       id="path907"
       inkscape:connector-curvature="0"
       sodipodi:nodetypes="sccsccsscccssccssccccccscccscscs"
       transform="scale(0.26458333)" />
  </g>
  <g
     inkscape:groupmode="layer"
     id="layer6"
     inkscape:label="Usta"
     style="display:inline">
    <path
       transform="translate(0,33)"
       style="display:inline;fill:#000000;stroke-width:0.10583334"
       d="m 36.764373,105.31405 c 0.380926,0.32414 2.664487,2.10206 3.020783,2.44481 0.27699,0.30877 1.230561,0.95379 1.939933,1.31258 3.507198,1.28699 6.720607,-1.33284 7.402132,-4.12584 0.638,-2.89679 0.665932,-5.226047 4.741312,-3.92328 1.653349,0.56152 2.148014,0.87351 2.923852,1.84278 0.955561,1.19381 2.386496,2.57243 3.025656,2.91559 0.898398,0.45939 2.386504,0.35116 3.403928,-0.46406 0.177138,0.8311 0.480263,3.74821 1.077452,2.14974 0.135665,-0.34521 0.547386,-2.6687 0.149344,-4.1429 -0.522235,-1.93429 0.02236,-4.227404 -0.528648,-6.312772 -0.533284,-0.521447 -1.152081,0.534547 -1.17874,1.062984 -0.08818,1.748061 -0.135821,2.792638 -0.0186,4.181638 0.03677,0.43573 0.252309,1.24873 0.225308,1.29243 -0.09432,0.15261 -0.996005,0.73007 -1.312066,0.84026 -0.684961,0.23878 -1.822937,-0.63703 -3.530531,-2.71611 -0.973108,-1.18479 -1.65794,-1.61269 -3.648874,-2.281514 -1.600909,-0.535557 -3.822187,-1.116494 -5.420857,0.843354 -0.470837,0.70022 -0.740117,1.54054 -1.104842,3.44889 -0.662502,2.94707 -3.667345,5.24156 -5.713346,3.76462 -0.879071,-0.46969 -3.689067,-2.50349 -4.354774,-3.35122 -0.289809,-0.36905 -3.154472,-3.30821 -3.154472,-3.30821"
       id="path875"
       inkscape:connector-curvature="0"
       sodipodi:nodetypes="cccccccccccccccccccccc" />
  </g>
  <g
     inkscape:groupmode="layer"
     id="layer5"
     inkscape:label="Oko"
     style="display:inline">
    <path
       transform="translate(0,33)"
       style="fill:#ffffff;fill-opacity:1;stroke:none;stroke-width:0.26458332px;stroke-linecap:butt;stroke-linejoin:miter;stroke-opacity:1"
       d="m 89.9189,32.025897 c 1.002263,0.835204 3.942227,5.846477 -1.904293,11.125027 -0.902036,-0.634767 1.26953,-5.712847 1.26953,-5.712847 0,0 0.20045,-3.574722 0.634763,-5.41218 z"
       id="path922"
       inkscape:connector-curvature="0"
       sodipodi:nodetypes="cccc"
       inkscape:export-xdpi="96"
       inkscape:export-ydpi="96" />
    <path
       style="display:inline;fill:#000000;stroke-width:0.40000001"
       d="m 323.57819,243.32026 c -4.88106,2.63401 -8.68684,4.99361 -11.88369,15.12158 -1.14744,3.63522 -1.45111,8.86793 -1.49919,15.82964 0.046,8.44152 1.18197,17.50779 9.69336,20.53321 8.6313,1.15264 21.73899,-10.69427 25.21485,-17.25391 6.7808,-13.29135 5.56945,-27.98155 -2.82422,-34.24805 -5.87769,-3.92719 -14.25501,-2.3353 -18.70111,0.0175 z m 17.27923,6.18169 c 1.1134,0.97535 1.7221,2.78734 2.14844,3.9961 0.86544,2.48748 1.02954,3.64273 1.00195,7.05468 -0.047,5.80548 -1.70312,11.43795 -4.68164,15.91602 -1.48472,2.23224 -5.64104,6.85906 -5.0332,5.60352 3.06975,-4.07764 5.11986,-9.05855 5.7832,-13 0.89727,-5.47371 1.12381,-9.94332 0.77149,-15.29102 -0.22281,-3.38209 -0.27223,-4.31516 0.01,-4.2793 z"
       transform="scale(0.26458333)"
       id="path952"
       inkscape:connector-curvature="0"
       sodipodi:nodetypes="csccccccccccccc" />
  </g>
  <g
     inkscape:groupmode="layer"
     id="layer11"
     inkscape:label="Brew"
     style="display:inline">
    <path
       style="display:inline;fill:#000000;stroke-width:0.10583334"
       d="m 89.332436,30.44124 c 0.811462,-0.511645 2.574364,-1.167552 3.09047,-2.096193 1.118643,-4.706977 -4.277855,0.54724 -7.591973,2.690455 -2.245749,1.452324 -7.150823,3.129914 -6.178988,5.109921 0.525664,1.070983 2.651436,-0.107342 3.618582,-0.767251 0.09413,-0.06423 3.525925,-2.281557 3.595562,-2.333413 0.06537,-0.04629 2.860856,-2.221743 3.466347,-2.603519 z"
       transform="translate(0,33)"
       id="path950"
       inkscape:connector-curvature="0"
       sodipodi:nodetypes="sccsscs" />
  </g>
</svg>
